solid OpenSCAD_Model
  facet normal -1 0 0
    outer loop
      vertex -12 -1 0
      vertex -12 -1 1
      vertex -12 1 0
    endloop
  endfacet
  facet normal -1 0 0
    outer loop
      vertex -12 1 0
      vertex -12 -1 1
      vertex -12 1 1
    endloop
  endfacet
  facet normal 0 -1 0
    outer loop
      vertex -12 -1 1
      vertex -12 -1 0
      vertex -9.93709 -1 0
    endloop
  endfacet
  facet normal 0 -1 0
    outer loop
      vertex -9.93709 -1 1
      vertex -12 -1 1
      vertex -9.93709 -1 0
    endloop
  endfacet
  facet normal 0 0 -1
    outer loop
      vertex -12 -1 0
      vertex -12 1 0
      vertex -9.93709 -1 0
    endloop
  endfacet
  facet normal 0 0 -1
    outer loop
      vertex -9.93709 -1 0
      vertex -12 1 0
      vertex -9.93709 1 0
    endloop
  endfacet
  facet normal 0 0 -1
    outer loop
      vertex -9.93709 -1 0
      vertex -9.93709 1 0
      vertex -9.92115 1.25333 0
    endloop
  endfacet
  facet normal 0 0 -1
    outer loop
      vertex -9.93709 -1 0
      vertex -9.92115 1.25333 0
      vertex -9.68583 2.4869 0
    endloop
  endfacet
  facet normal 0 0 -1
    outer loop
      vertex -9.93709 -1 0
      vertex -9.68583 2.4869 0
      vertex -9.29777 3.68125 0
    endloop
  endfacet
  facet normal 0 0 -1
    outer loop
      vertex -9.93709 -1 0
      vertex -9.29777 3.68125 0
      vertex -8.76307 4.81754 0
    endloop
  endfacet
  facet normal 0 0 -1
    outer loop
      vertex -9.93709 -1 0
      vertex -8.76307 4.81754 0
      vertex -8.09017 5.87785 0
    endloop
  endfacet
  facet normal 0 0 -1
    outer loop
      vertex -9.93709 -1 0
      vertex -8.09017 5.87785 0
      vertex -7.28969 6.84547 0
    endloop
  endfacet
  facet normal 0 0 -1
    outer loop
      vertex -9.93709 -1 0
      vertex -7.28969 6.84547 0
      vertex -6.37424 7.70513 0
    endloop
  endfacet
  facet normal 0 0 -1
    outer loop
      vertex -9.93709 -1 0
      vertex -6.37424 7.70513 0
      vertex -5.83109 8.09975 0
    endloop
  endfacet
  facet normal 0 0 -1
    outer loop
      vertex -5.83109 8.09975 0
      vertex -6.86603 9.8923 0
      vertex -5.13397 10.8923 0
    endloop
  endfacet
  facet normal 0 0 -1
    outer loop
      vertex -5.83109 8.09975 0
      vertex -5.13397 10.8923 0
      vertex -4.10439 9.10901 0
    endloop
  endfacet
  facet normal 0 0 -1
    outer loop
      vertex -5.83109 8.09975 0
      vertex -4.10439 9.10901 0
      vertex -9.93709 -1 0
    endloop
  endfacet
  facet normal 0 0 -1
    outer loop
      vertex -9.93709 -1 0
      vertex -4.10439 9.10901 0
      vertex -3.09017 9.51056 0
    endloop
  endfacet
  facet normal 0 0 -1
    outer loop
      vertex -9.93709 -1 0
      vertex -3.09017 9.51056 0
      vertex -1.87381 9.82287 0
    endloop
  endfacet
  facet normal 0 0 -1
    outer loop
      vertex -9.93709 -1 0
      vertex -1.87381 9.82287 0
      vertex -0.627905 9.98027 0
    endloop
  endfacet
  facet normal 0 0 -1
    outer loop
      vertex -9.93709 -1 0
      vertex -0.627905 9.98027 0
      vertex 0.627905 9.98027 0
    endloop
  endfacet
  facet normal 0 0 -1
    outer loop
      vertex -9.93709 -1 0
      vertex 0.627905 9.98027 0
      vertex 1.87381 9.82287 0
    endloop
  endfacet
  facet normal 0 0 -1
    outer loop
      vertex -9.93709 -1 0
      vertex 1.87381 9.82287 0
      vertex 3.09017 9.51056 0
    endloop
  endfacet
  facet normal 0 0 -1
    outer loop
      vertex -9.93709 -1 0
      vertex 3.09017 9.51056 0
      vertex 4.10439 9.10901 0
    endloop
  endfacet
  facet normal 0 0 -1
    outer loop
      vertex 4.10439 9.10901 0
      vertex 5.13397 10.8923 0
      vertex 6.86603 9.8923 0
    endloop
  endfacet
  facet normal 0 0 -1
    outer loop
      vertex 4.10439 9.10901 0
      vertex 6.86603 9.8923 0
      vertex -9.93709 -1 0
    endloop
  endfacet
  facet normal 0 0 -1
    outer loop
      vertex -0.843216 4.42029 0
      vertex 6.86603 9.8923 0
      vertex 5.83109 8.09975 0
    endloop
  endfacet
  facet normal 0 0 -1
    outer loop
      vertex 0.282557 4.49112 0
      vertex 5.83109 8.09975 0
      vertex 6.37424 7.70513 0
    endloop
  endfacet
  facet normal 0 0 -1
    outer loop
      vertex 1.39058 4.27975 0
      vertex 6.37424 7.70513 0
      vertex 7.28969 6.84547 0
    endloop
  endfacet
  facet normal 0 0 -1
    outer loop
      vertex 2.41122 3.79948 0
      vertex 7.28969 6.84547 0
      vertex 8.09017 5.87785 0
    endloop
  endfacet
  facet normal 0 0 -1
    outer loop
      vertex 2.86841 3.46731 0
      vertex 8.09017 5.87785 0
      vertex 8.76307 4.81754 0
    endloop
  endfacet
  facet normal 0 0 -1
    outer loop
      vertex 3.64058 2.64503 0
      vertex 8.76307 4.81754 0
      vertex 9.29777 3.68125 0
    endloop
  endfacet
  facet normal 0 0 -1
    outer loop
      vertex 4.18399 1.65656 0
      vertex 9.29777 3.68125 0
      vertex 9.68583 2.4869 0
    endloop
  endfacet
  facet normal 0 0 -1
    outer loop
      vertex 4.35862 1.1191 0
      vertex 9.68583 2.4869 0
      vertex 9.92115 1.25333 0
    endloop
  endfacet
  facet normal 0 0 -1
    outer loop
      vertex 4.46452 0.564 0
      vertex 9.92115 1.25333 0
      vertex 9.93709 1 0
    endloop
  endfacet
  facet normal 0 0 -1
    outer loop
      vertex 9.93709 -1 0
      vertex 12 1 0
      vertex 12 -1 0
    endloop
  endfacet
  facet normal 0 0 -1
    outer loop
      vertex 4.46452 -0.564 0
      vertex 12 1 0
      vertex 9.93709 -1 0
    endloop
  endfacet
  facet normal 0 0 -1
    outer loop
      vertex -4.18399 -1.65656 0
      vertex -9.93709 -1 0
      vertex -4.35862 -1.1191 0
    endloop
  endfacet
  facet normal 0 0 -1
    outer loop
      vertex -4.5 0 0
      vertex -9.93709 -1 0
      vertex -4.46452 0.564 0
    endloop
  endfacet
  facet normal 0 0 -1
    outer loop
      vertex 4.35862 1.1191 0
      vertex 9.92115 1.25333 0
      vertex 4.46452 0.564 0
    endloop
  endfacet
  facet normal 0 0 -1
    outer loop
      vertex 6.86603 -9.8923 0
      vertex 5.13397 -10.8923 0
      vertex 4.10439 -9.10901 0
    endloop
  endfacet
  facet normal 0 0 -1
    outer loop
      vertex -5.83109 -8.09975 0
      vertex -5.13397 -10.8923 0
      vertex -6.86603 -9.8923 0
    endloop
  endfacet
  facet normal 0 0 -1
    outer loop
      vertex -3.64058 -2.64503 0
      vertex -9.92115 -1.25333 0
      vertex -3.94338 -2.16789 0
    endloop
  endfacet
  facet normal 0 0 -1
    outer loop
      vertex -0.282557 -4.49112 0
      vertex 7.28969 -6.84547 0
      vertex -0.843216 -4.42029 0
    endloop
  endfacet
  facet normal 0 0 -1
    outer loop
      vertex -9.92115 -1.25333 0
      vertex -3.64058 -2.64503 0
      vertex -3.28036 -3.08046 0
    endloop
  endfacet
  facet normal 0 0 -1
    outer loop
      vertex -9.68583 -2.4869 0
      vertex 0.627905 -9.98027 0
      vertex -0.627905 -9.98027 0
    endloop
  endfacet
  facet normal 0 0 -1
    outer loop
      vertex -9.68583 -2.4869 0
      vertex -3.09017 -9.51056 0
      vertex -9.29777 -3.68125 0
    endloop
  endfacet
  facet normal 0 0 -1
    outer loop
      vertex -4.10439 -9.10901 0
      vertex -5.13397 -10.8923 0
      vertex -5.83109 -8.09975 0
    endloop
  endfacet
  facet normal 0 0 -1
    outer loop
      vertex -9.68583 -2.4869 0
      vertex -0.627905 -9.98027 0
      vertex -1.87381 -9.82287 0
    endloop
  endfacet
  facet normal 0 0 -1
    outer loop
      vertex -8.76307 -4.81754 0
      vertex -6.37424 -7.70513 0
      vertex -7.28969 -6.84547 0
    endloop
  endfacet
  facet normal 0 0 -1
    outer loop
      vertex -9.29777 -3.68125 0
      vertex -4.10439 -9.10901 0
      vertex -5.83109 -8.09975 0
    endloop
  endfacet
  facet normal 0 0 -1
    outer loop
      vertex -8.76307 -4.81754 0
      vertex -7.28969 -6.84547 0
      vertex -8.09017 -5.87785 0
    endloop
  endfacet
  facet normal 0 0 -1
    outer loop
      vertex -9.29777 -3.68125 0
      vertex -5.83109 -8.09975 0
      vertex -8.76307 -4.81754 0
    endloop
  endfacet
  facet normal 0 0 -1
    outer loop
      vertex -5.83109 -8.09975 0
      vertex -6.37424 -7.70513 0
      vertex -8.76307 -4.81754 0
    endloop
  endfacet
  facet normal 0 0 -1
    outer loop
      vertex -9.68583 -2.4869 0
      vertex -1.87381 -9.82287 0
      vertex -3.09017 -9.51056 0
    endloop
  endfacet
  facet normal 0 0 -1
    outer loop
      vertex -3.09017 -9.51056 0
      vertex -4.10439 -9.10901 0
      vertex -9.29777 -3.68125 0
    endloop
  endfacet
  facet normal 0 0 -1
    outer loop
      vertex 1.87381 -9.82287 0
      vertex 0.627905 -9.98027 0
      vertex -9.68583 -2.4869 0
    endloop
  endfacet
  facet normal 0 0 -1
    outer loop
      vertex -4.46452 -0.564 0
      vertex -9.93709 -1 0
      vertex -4.5 0 0
    endloop
  endfacet
  facet normal 0 0 -1
    outer loop
      vertex -4.35862 -1.1191 0
      vertex -9.93709 -1 0
      vertex -4.46452 -0.564 0
    endloop
  endfacet
  facet normal 0 0 -1
    outer loop
      vertex 4.35862 -1.1191 0
      vertex 9.92115 -1.25333 0
      vertex 4.18399 -1.65656 0
    endloop
  endfacet
  facet normal 0 0 -1
    outer loop
      vertex 4.18399 -1.65656 0
      vertex 9.68583 -2.4869 0
      vertex 3.94338 -2.16789 0
    endloop
  endfacet
  facet normal 0 0 -1
    outer loop
      vertex -3.94338 -2.16789 0
      vertex -9.92115 -1.25333 0
      vertex -4.18399 -1.65656 0
    endloop
  endfacet
  facet normal 0 0 -1
    outer loop
      vertex 3.64058 -2.64503 0
      vertex 9.29777 -3.68125 0
      vertex 3.28036 -3.08046 0
    endloop
  endfacet
  facet normal 0 0 -1
    outer loop
      vertex 2.86841 3.46731 0
      vertex 8.76307 4.81754 0
      vertex 3.28036 3.08046 0
    endloop
  endfacet
  facet normal 0 0 -1
    outer loop
      vertex 2.86841 -3.46731 0
      vertex 8.76307 -4.81754 0
      vertex 2.41122 -3.79948 0
    endloop
  endfacet
  facet normal 0 0 -1
    outer loop
      vertex 4.46452 0.564 0
      vertex 9.93709 1 0
      vertex 12 1 0
    endloop
  endfacet
  facet normal 0 0 -1
    outer loop
      vertex 1.39058 -4.27975 0
      vertex 8.09017 -5.87785 0
      vertex 0.843216 -4.42029 0
    endloop
  endfacet
  facet normal 0 0 -1
    outer loop
      vertex -1.39058 -4.27975 0
      vertex 6.37424 -7.70513 0
      vertex -1.91601 -4.07172 0
    endloop
  endfacet
  facet normal 0 0 -1
    outer loop
      vertex 7.28969 -6.84547 0
      vertex 6.37424 -7.70513 0
      vertex -1.39058 -4.27975 0
    endloop
  endfacet
  facet normal 0 0 -1
    outer loop
      vertex 7.28969 -6.84547 0
      vertex -1.39058 -4.27975 0
      vertex -0.843216 -4.42029 0
    endloop
  endfacet
  facet normal 0 0 -1
    outer loop
      vertex 8.09017 -5.87785 0
      vertex 7.28969 -6.84547 0
      vertex 0.282557 -4.49112 0
    endloop
  endfacet
  facet normal 0 0 -1
    outer loop
      vertex 8.09017 -5.87785 0
      vertex 0.282557 -4.49112 0
      vertex 0.843216 -4.42029 0
    endloop
  endfacet
  facet normal 0 0 -1
    outer loop
      vertex 1.91601 -4.07172 0
      vertex 8.09017 -5.87785 0
      vertex 1.39058 -4.27975 0
    endloop
  endfacet
  facet normal 0 0 -1
    outer loop
      vertex 8.76307 -4.81754 0
      vertex 8.09017 -5.87785 0
      vertex 1.91601 -4.07172 0
    endloop
  endfacet
  facet normal 0 0 -1
    outer loop
      vertex 8.76307 -4.81754 0
      vertex 1.91601 -4.07172 0
      vertex 2.41122 -3.79948 0
    endloop
  endfacet
  facet normal 0 0 -1
    outer loop
      vertex 9.29777 -3.68125 0
      vertex 8.76307 -4.81754 0
      vertex 2.86841 -3.46731 0
    endloop
  endfacet
  facet normal 0 0 -1
    outer loop
      vertex 9.29777 -3.68125 0
      vertex 2.86841 -3.46731 0
      vertex 3.28036 -3.08046 0
    endloop
  endfacet
  facet normal 0 0 -1
    outer loop
      vertex 9.68583 -2.4869 0
      vertex 9.29777 -3.68125 0
      vertex 3.64058 -2.64503 0
    endloop
  endfacet
  facet normal 0 0 -1
    outer loop
      vertex 9.68583 -2.4869 0
      vertex 3.64058 -2.64503 0
      vertex 3.94338 -2.16789 0
    endloop
  endfacet
  facet normal 0 0 -1
    outer loop
      vertex 9.92115 -1.25333 0
      vertex 9.68583 -2.4869 0
      vertex 4.18399 -1.65656 0
    endloop
  endfacet
  facet normal 0 0 -1
    outer loop
      vertex 9.93709 -1 0
      vertex 9.92115 -1.25333 0
      vertex 4.35862 -1.1191 0
    endloop
  endfacet
  facet normal 0 0 -1
    outer loop
      vertex 4.5 0 0
      vertex 12 1 0
      vertex 4.46452 -0.564 0
    endloop
  endfacet
  facet normal 0 0 -1
    outer loop
      vertex 4.46452 0.564 0
      vertex 12 1 0
      vertex 4.5 0 0
    endloop
  endfacet
  facet normal 0 0 -1
    outer loop
      vertex 4.46452 -0.564 0
      vertex 9.93709 -1 0
      vertex 4.35862 -1.1191 0
    endloop
  endfacet
  facet normal 0 0 -1
    outer loop
      vertex 3.94338 2.16789 0
      vertex 9.29777 3.68125 0
      vertex 4.18399 1.65656 0
    endloop
  endfacet
  facet normal 0 0 -1
    outer loop
      vertex 3.64058 2.64503 0
      vertex 9.29777 3.68125 0
      vertex 3.94338 2.16789 0
    endloop
  endfacet
  facet normal 0 0 -1
    outer loop
      vertex 3.28036 3.08046 0
      vertex 8.76307 4.81754 0
      vertex 3.64058 2.64503 0
    endloop
  endfacet
  facet normal 0 0 -1
    outer loop
      vertex -4.46452 0.564 0
      vertex -9.93709 -1 0
      vertex -4.35862 1.1191 0
    endloop
  endfacet
  facet normal 0 0 -1
    outer loop
      vertex 2.41122 3.79948 0
      vertex 8.09017 5.87785 0
      vertex 2.86841 3.46731 0
    endloop
  endfacet
  facet normal 0 0 -1
    outer loop
      vertex 1.91601 4.07172 0
      vertex 7.28969 6.84547 0
      vertex 2.41122 3.79948 0
    endloop
  endfacet
  facet normal 0 0 -1
    outer loop
      vertex 1.39058 4.27975 0
      vertex 7.28969 6.84547 0
      vertex 1.91601 4.07172 0
    endloop
  endfacet
  facet normal 0 0 -1
    outer loop
      vertex 0.843216 4.42029 0
      vertex 6.37424 7.70513 0
      vertex 1.39058 4.27975 0
    endloop
  endfacet
  facet normal 0 0 -1
    outer loop
      vertex 0.282557 4.49112 0
      vertex 6.37424 7.70513 0
      vertex 0.843216 4.42029 0
    endloop
  endfacet
  facet normal 0 0 -1
    outer loop
      vertex -0.282557 4.49112 0
      vertex 5.83109 8.09975 0
      vertex 0.282557 4.49112 0
    endloop
  endfacet
  facet normal 0 0 -1
    outer loop
      vertex -0.843216 4.42029 0
      vertex 5.83109 8.09975 0
      vertex -0.282557 4.49112 0
    endloop
  endfacet
  facet normal 0 0 -1
    outer loop
      vertex -1.39058 4.27975 0
      vertex 6.86603 9.8923 0
      vertex -0.843216 4.42029 0
    endloop
  endfacet
  facet normal 0 0 -1
    outer loop
      vertex -2.86841 3.46731 0
      vertex -9.93709 -1 0
      vertex -2.41122 3.79948 0
    endloop
  endfacet
  facet normal 0 0 -1
    outer loop
      vertex -1.91601 4.07172 0
      vertex 6.86603 9.8923 0
      vertex -1.39058 4.27975 0
    endloop
  endfacet
  facet normal 0 0 -1
    outer loop
      vertex -2.41122 3.79948 0
      vertex 6.86603 9.8923 0
      vertex -1.91601 4.07172 0
    endloop
  endfacet
  facet normal 0 0 -1
    outer loop
      vertex -9.93709 -1 0
      vertex 6.86603 9.8923 0
      vertex -2.41122 3.79948 0
    endloop
  endfacet
  facet normal 0 0 -1
    outer loop
      vertex -3.28036 3.08046 0
      vertex -9.93709 -1 0
      vertex -2.86841 3.46731 0
    endloop
  endfacet
  facet normal 0 0 -1
    outer loop
      vertex -3.64058 2.64503 0
      vertex -9.93709 -1 0
      vertex -3.28036 3.08046 0
    endloop
  endfacet
  facet normal 0 0 -1
    outer loop
      vertex -3.94338 2.16789 0
      vertex -9.93709 -1 0
      vertex -3.64058 2.64503 0
    endloop
  endfacet
  facet normal 0 0 -1
    outer loop
      vertex -4.35862 1.1191 0
      vertex -9.93709 -1 0
      vertex -4.18399 1.65656 0
    endloop
  endfacet
  facet normal 0 0 -1
    outer loop
      vertex -4.18399 1.65656 0
      vertex -9.93709 -1 0
      vertex -3.94338 2.16789 0
    endloop
  endfacet
  facet normal 0 0 -1
    outer loop
      vertex 4.18399 1.65656 0
      vertex 9.68583 2.4869 0
      vertex 4.35862 1.1191 0
    endloop
  endfacet
  facet normal 0 0 -1
    outer loop
      vertex -4.18399 -1.65656 0
      vertex -9.92115 -1.25333 0
      vertex -9.93709 -1 0
    endloop
  endfacet
  facet normal 0 0 -1
    outer loop
      vertex -9.92115 -1.25333 0
      vertex -3.28036 -3.08046 0
      vertex -2.86841 -3.46731 0
    endloop
  endfacet
  facet normal 0 0 -1
    outer loop
      vertex -9.92115 -1.25333 0
      vertex -2.86841 -3.46731 0
      vertex -2.41122 -3.79948 0
    endloop
  endfacet
  facet normal 0 0 -1
    outer loop
      vertex 0.282557 -4.49112 0
      vertex 7.28969 -6.84547 0
      vertex -0.282557 -4.49112 0
    endloop
  endfacet
  facet normal 0 0 -1
    outer loop
      vertex -9.92115 -1.25333 0
      vertex -2.41122 -3.79948 0
      vertex -1.91601 -4.07172 0
    endloop
  endfacet
  facet normal 0 0 -1
    outer loop
      vertex -9.92115 -1.25333 0
      vertex -1.91601 -4.07172 0
      vertex 6.37424 -7.70513 0
    endloop
  endfacet
  facet normal 0 0 -1
    outer loop
      vertex -9.92115 -1.25333 0
      vertex 6.37424 -7.70513 0
      vertex 5.83109 -8.09975 0
    endloop
  endfacet
  facet normal 0 0 -1
    outer loop
      vertex -9.92115 -1.25333 0
      vertex 5.83109 -8.09975 0
      vertex 6.86603 -9.8923 0
    endloop
  endfacet
  facet normal 0 0 -1
    outer loop
      vertex -9.92115 -1.25333 0
      vertex 6.86603 -9.8923 0
      vertex 4.10439 -9.10901 0
    endloop
  endfacet
  facet normal 0 0 -1
    outer loop
      vertex -9.92115 -1.25333 0
      vertex 4.10439 -9.10901 0
      vertex 3.09017 -9.51056 0
    endloop
  endfacet
  facet normal 0 0 -1
    outer loop
      vertex -9.92115 -1.25333 0
      vertex 3.09017 -9.51056 0
      vertex 1.87381 -9.82287 0
    endloop
  endfacet
  facet normal 0 0 -1
    outer loop
      vertex -9.92115 -1.25333 0
      vertex 1.87381 -9.82287 0
      vertex -9.68583 -2.4869 0
    endloop
  endfacet
  facet normal 0 1 0
    outer loop
      vertex -12 1 0
      vertex -12 1 1
      vertex -9.93709 1 0
    endloop
  endfacet
  facet normal 0 1 0
    outer loop
      vertex -9.93709 1 0
      vertex -12 1 1
      vertex -9.93709 1 1
    endloop
  endfacet
  facet normal 0 0 1
    outer loop
      vertex -12 1 1
      vertex -12 -1 1
      vertex -9.93709 -1 1
    endloop
  endfacet
  facet normal 0 0 1
    outer loop
      vertex -9.93709 1 1
      vertex -12 1 1
      vertex -10 0 1
    endloop
  endfacet
  facet normal 0 0 1
    outer loop
      vertex -10 0 1
      vertex -12 1 1
      vertex -9.93709 -1 1
    endloop
  endfacet
  facet normal -0.998027 -0.0627905 0
    outer loop
      vertex -10 0 1
      vertex -9.93709 -1 1
      vertex -10 0 3
    endloop
  endfacet
  facet normal -0.998027 -0.0627905 0
    outer loop
      vertex -9.92115 -1.25333 0
      vertex -9.93709 -1 1
      vertex -9.93709 -1 0
    endloop
  endfacet
  facet normal -0.998027 -0.0627905 0
    outer loop
      vertex -9.92115 -1.25333 3
      vertex -9.93709 -1 1
      vertex -9.92115 -1.25333 0
    endloop
  endfacet
  facet normal -0.998027 -0.0627905 0
    outer loop
      vertex -10 0 3
      vertex -9.93709 -1 1
      vertex -9.92115 -1.25333 3
    endloop
  endfacet
  facet normal -0.982287 -0.187381 0
    outer loop
      vertex -9.92115 -1.25333 0
      vertex -9.68583 -2.4869 0
      vertex -9.92115 -1.25333 3
    endloop
  endfacet
  facet normal -0.982287 -0.187381 0
    outer loop
      vertex -9.92115 -1.25333 3
      vertex -9.68583 -2.4869 0
      vertex -9.68583 -2.4869 3
    endloop
  endfacet
  facet normal -0.951056 -0.309017 0
    outer loop
      vertex -9.68583 -2.4869 0
      vertex -9.29777 -3.68125 0
      vertex -9.68583 -2.4869 3
    endloop
  endfacet
  facet normal -0.951056 -0.309017 0
    outer loop
      vertex -9.68583 -2.4869 3
      vertex -9.29777 -3.68125 0
      vertex -9.29777 -3.68125 3
    endloop
  endfacet
  facet normal -0.904827 -0.425779 0
    outer loop
      vertex -9.29777 -3.68125 0
      vertex -8.76307 -4.81754 0
      vertex -9.29777 -3.68125 3
    endloop
  endfacet
  facet normal -0.904827 -0.425779 0
    outer loop
      vertex -9.29777 -3.68125 3
      vertex -8.76307 -4.81754 0
      vertex -8.76307 -4.81754 3
    endloop
  endfacet
  facet normal -0.844328 -0.535827 0
    outer loop
      vertex -8.76307 -4.81754 0
      vertex -8.09017 -5.87785 0
      vertex -8.76307 -4.81754 3
    endloop
  endfacet
  facet normal -0.844328 -0.535827 0
    outer loop
      vertex -8.76307 -4.81754 3
      vertex -8.09017 -5.87785 0
      vertex -8.09017 -5.87785 3
    endloop
  endfacet
  facet normal -0.770513 -0.637424 0
    outer loop
      vertex -8.09017 -5.87785 0
      vertex -7.28969 -6.84547 0
      vertex -8.09017 -5.87785 3
    endloop
  endfacet
  facet normal -0.770513 -0.637424 0
    outer loop
      vertex -8.09017 -5.87785 3
      vertex -7.28969 -6.84547 0
      vertex -7.28969 -6.84547 3
    endloop
  endfacet
  facet normal -0.684547 -0.728969 0
    outer loop
      vertex -7.28969 -6.84547 3
      vertex -7.28969 -6.84547 0
      vertex -6.37424 -7.70513 0
    endloop
  endfacet
  facet normal -0.684547 -0.728969 0
    outer loop
      vertex -6.37424 -7.70513 3
      vertex -7.28969 -6.84547 3
      vertex -6.37424 -7.70513 0
    endloop
  endfacet
  facet normal -0.587785 -0.809017 0
    outer loop
      vertex -6.37424 -7.70513 3
      vertex -6.37424 -7.70513 0
      vertex -5.83109 -8.09975 0
    endloop
  endfacet
  facet normal -0.587785 -0.809017 0
    outer loop
      vertex -5.35827 -8.44328 1
      vertex -6.37424 -7.70513 3
      vertex -5.83109 -8.09975 1
    endloop
  endfacet
  facet normal -0.587785 -0.809017 0
    outer loop
      vertex -5.83109 -8.09975 1
      vertex -6.37424 -7.70513 3
      vertex -5.83109 -8.09975 0
    endloop
  endfacet
  facet normal -0.587785 -0.809017 0
    outer loop
      vertex -5.35827 -8.44328 3
      vertex -6.37424 -7.70513 3
      vertex -5.35827 -8.44328 1
    endloop
  endfacet
  facet normal -0.866025 0.5 0
    outer loop
      vertex -6.86603 -9.8923 0
      vertex -6.86603 -9.8923 1
      vertex -5.83109 -8.09975 0
    endloop
  endfacet
  facet normal -0.866025 0.5 0
    outer loop
      vertex -5.83109 -8.09975 0
      vertex -6.86603 -9.8923 1
      vertex -5.83109 -8.09975 1
    endloop
  endfacet
  facet normal -0.5 -0.866025 0
    outer loop
      vertex -6.86603 -9.8923 1
      vertex -6.86603 -9.8923 0
      vertex -5.13397 -10.8923 0
    endloop
  endfacet
  facet normal -0.5 -0.866025 0
    outer loop
      vertex -5.13397 -10.8923 1
      vertex -6.86603 -9.8923 1
      vertex -5.13397 -10.8923 0
    endloop
  endfacet
  facet normal 0.866025 -0.5 0
    outer loop
      vertex -5.13397 -10.8923 1
      vertex -5.13397 -10.8923 0
      vertex -4.10439 -9.10901 0
    endloop
  endfacet
  facet normal 0.866025 -0.5 0
    outer loop
      vertex -4.10439 -9.10901 1
      vertex -5.13397 -10.8923 1
      vertex -4.10439 -9.10901 0
    endloop
  endfacet
  facet normal -0.368124 -0.929777 0
    outer loop
      vertex -4.25779 -9.04827 3
      vertex -4.25779 -9.04827 1
      vertex -4.10439 -9.10901 1
    endloop
  endfacet
  facet normal -0.368124 -0.929777 0
    outer loop
      vertex -3.09017 -9.51056 0
      vertex -4.25779 -9.04827 3
      vertex -4.10439 -9.10901 1
    endloop
  endfacet
  facet normal -0.368124 -0.929777 0
    outer loop
      vertex -4.10439 -9.10901 0
      vertex -3.09017 -9.51056 0
      vertex -4.10439 -9.10901 1
    endloop
  endfacet
  facet normal -0.368124 -0.929777 0
    outer loop
      vertex -3.09017 -9.51056 0
      vertex -3.09017 -9.51056 3
      vertex -4.25779 -9.04827 3
    endloop
  endfacet
  facet normal -0.24869 -0.968583 0
    outer loop
      vertex -3.09017 -9.51056 3
      vertex -3.09017 -9.51056 0
      vertex -1.87381 -9.82287 0
    endloop
  endfacet
  facet normal -0.24869 -0.968583 0
    outer loop
      vertex -1.87381 -9.82287 3
      vertex -3.09017 -9.51056 3
      vertex -1.87381 -9.82287 0
    endloop
  endfacet
  facet normal -0.125333 -0.992115 0
    outer loop
      vertex -1.87381 -9.82287 3
      vertex -1.87381 -9.82287 0
      vertex -0.627905 -9.98027 0
    endloop
  endfacet
  facet normal -0.125333 -0.992115 0
    outer loop
      vertex -0.627905 -9.98027 3
      vertex -1.87381 -9.82287 3
      vertex -0.627905 -9.98027 0
    endloop
  endfacet
  facet normal 0 -1 0
    outer loop
      vertex -0.627905 -9.98027 3
      vertex -0.627905 -9.98027 0
      vertex 0.627905 -9.98027 0
    endloop
  endfacet
  facet normal 0 -1 0
    outer loop
      vertex 0.627905 -9.98027 3
      vertex -0.627905 -9.98027 3
      vertex 0.627905 -9.98027 0
    endloop
  endfacet
  facet normal 0.125333 -0.992115 0
    outer loop
      vertex 0.627905 -9.98027 3
      vertex 0.627905 -9.98027 0
      vertex 1.87381 -9.82287 0
    endloop
  endfacet
  facet normal 0.125333 -0.992115 0
    outer loop
      vertex 1.87381 -9.82287 3
      vertex 0.627905 -9.98027 3
      vertex 1.87381 -9.82287 0
    endloop
  endfacet
  facet normal 0.24869 -0.968583 0
    outer loop
      vertex 1.87381 -9.82287 3
      vertex 1.87381 -9.82287 0
      vertex 3.09017 -9.51056 0
    endloop
  endfacet
  facet normal 0.24869 -0.968583 0
    outer loop
      vertex 3.09017 -9.51056 3
      vertex 1.87381 -9.82287 3
      vertex 3.09017 -9.51056 0
    endloop
  endfacet
  facet normal 0.368124 -0.929777 0
    outer loop
      vertex 3.09017 -9.51056 3
      vertex 3.09017 -9.51056 0
      vertex 4.10439 -9.10901 0
    endloop
  endfacet
  facet normal 0.368124 -0.929777 0
    outer loop
      vertex 4.25779 -9.04827 1
      vertex 3.09017 -9.51056 3
      vertex 4.10439 -9.10901 1
    endloop
  endfacet
  facet normal 0.368124 -0.929777 0
    outer loop
      vertex 4.10439 -9.10901 1
      vertex 3.09017 -9.51056 3
      vertex 4.10439 -9.10901 0
    endloop
  endfacet
  facet normal 0.368124 -0.929777 0
    outer loop
      vertex 4.25779 -9.04827 3
      vertex 3.09017 -9.51056 3
      vertex 4.25779 -9.04827 1
    endloop
  endfacet
  facet normal -0.866025 -0.5 0
    outer loop
      vertex 4.10439 -9.10901 0
      vertex 5.13397 -10.8923 0
      vertex 4.10439 -9.10901 1
    endloop
  endfacet
  facet normal -0.866025 -0.5 0
    outer loop
      vertex 4.10439 -9.10901 1
      vertex 5.13397 -10.8923 0
      vertex 5.13397 -10.8923 1
    endloop
  endfacet
  facet normal 0.5 -0.866025 0
    outer loop
      vertex 5.13397 -10.8923 1
      vertex 5.13397 -10.8923 0
      vertex 6.86603 -9.8923 0
    endloop
  endfacet
  facet normal 0.5 -0.866025 0
    outer loop
      vertex 6.86603 -9.8923 1
      vertex 5.13397 -10.8923 1
      vertex 6.86603 -9.8923 0
    endloop
  endfacet
  facet normal 0.866025 0.5 0
    outer loop
      vertex 6.86603 -9.8923 0
      vertex 5.83109 -8.09975 0
      vertex 5.83109 -8.09975 1
    endloop
  endfacet
  facet normal 0.866025 0.5 0
    outer loop
      vertex 6.86603 -9.8923 1
      vertex 6.86603 -9.8923 0
      vertex 5.83109 -8.09975 1
    endloop
  endfacet
  facet normal 0.587785 -0.809017 0
    outer loop
      vertex 5.35827 -8.44328 3
      vertex 5.35827 -8.44328 1
      vertex 5.83109 -8.09975 1
    endloop
  endfacet
  facet normal 0.587785 -0.809017 0
    outer loop
      vertex 6.37424 -7.70513 0
      vertex 5.35827 -8.44328 3
      vertex 5.83109 -8.09975 1
    endloop
  endfacet
  facet normal 0.587785 -0.809017 0
    outer loop
      vertex 5.83109 -8.09975 0
      vertex 6.37424 -7.70513 0
      vertex 5.83109 -8.09975 1
    endloop
  endfacet
  facet normal 0.587785 -0.809017 0
    outer loop
      vertex 6.37424 -7.70513 0
      vertex 6.37424 -7.70513 3
      vertex 5.35827 -8.44328 3
    endloop
  endfacet
  facet normal 0.684547 -0.728969 0
    outer loop
      vertex 6.37424 -7.70513 3
      vertex 6.37424 -7.70513 0
      vertex 7.28969 -6.84547 0
    endloop
  endfacet
  facet normal 0.684547 -0.728969 0
    outer loop
      vertex 7.28969 -6.84547 3
      vertex 6.37424 -7.70513 3
      vertex 7.28969 -6.84547 0
    endloop
  endfacet
  facet normal 0.770513 -0.637424 0
    outer loop
      vertex 7.28969 -6.84547 3
      vertex 7.28969 -6.84547 0
      vertex 8.09017 -5.87785 0
    endloop
  endfacet
  facet normal 0.770513 -0.637424 0
    outer loop
      vertex 8.09017 -5.87785 3
      vertex 7.28969 -6.84547 3
      vertex 8.09017 -5.87785 0
    endloop
  endfacet
  facet normal 0.844328 -0.535827 0
    outer loop
      vertex 8.09017 -5.87785 3
      vertex 8.09017 -5.87785 0
      vertex 8.76307 -4.81754 0
    endloop
  endfacet
  facet normal 0.844328 -0.535827 0
    outer loop
      vertex 8.76307 -4.81754 3
      vertex 8.09017 -5.87785 3
      vertex 8.76307 -4.81754 0
    endloop
  endfacet
  facet normal 0.904827 -0.425779 0
    outer loop
      vertex 8.76307 -4.81754 3
      vertex 8.76307 -4.81754 0
      vertex 9.29777 -3.68125 0
    endloop
  endfacet
  facet normal 0.904827 -0.425779 0
    outer loop
      vertex 9.29777 -3.68125 3
      vertex 8.76307 -4.81754 3
      vertex 9.29777 -3.68125 0
    endloop
  endfacet
  facet normal 0.951056 -0.309017 0
    outer loop
      vertex 9.29777 -3.68125 3
      vertex 9.29777 -3.68125 0
      vertex 9.68583 -2.4869 0
    endloop
  endfacet
  facet normal 0.951056 -0.309017 0
    outer loop
      vertex 9.68583 -2.4869 3
      vertex 9.29777 -3.68125 3
      vertex 9.68583 -2.4869 0
    endloop
  endfacet
  facet normal 0.982287 -0.187381 0
    outer loop
      vertex 9.68583 -2.4869 3
      vertex 9.68583 -2.4869 0
      vertex 9.92115 -1.25333 0
    endloop
  endfacet
  facet normal 0.982287 -0.187381 0
    outer loop
      vertex 9.92115 -1.25333 3
      vertex 9.68583 -2.4869 3
      vertex 9.92115 -1.25333 0
    endloop
  endfacet
  facet normal 0.998027 -0.0627905 0
    outer loop
      vertex 9.92115 -1.25333 3
      vertex 9.92115 -1.25333 0
      vertex 9.93709 -1 0
    endloop
  endfacet
  facet normal 0.998027 -0.0627905 0
    outer loop
      vertex 10 0 1
      vertex 9.92115 -1.25333 3
      vertex 9.93709 -1 1
    endloop
  endfacet
  facet normal 0.998027 -0.0627905 0
    outer loop
      vertex 9.93709 -1 1
      vertex 9.92115 -1.25333 3
      vertex 9.93709 -1 0
    endloop
  endfacet
  facet normal 0.998027 -0.0627905 0
    outer loop
      vertex 10 0 3
      vertex 9.92115 -1.25333 3
      vertex 10 0 1
    endloop
  endfacet
  facet normal 0 -1 0
    outer loop
      vertex 9.93709 -1 1
      vertex 9.93709 -1 0
      vertex 12 -1 0
    endloop
  endfacet
  facet normal 0 -1 0
    outer loop
      vertex 12 -1 1
      vertex 9.93709 -1 1
      vertex 12 -1 0
    endloop
  endfacet
  facet normal 1 0 0
    outer loop
      vertex 12 -1 1
      vertex 12 -1 0
      vertex 12 1 0
    endloop
  endfacet
  facet normal 1 0 0
    outer loop
      vertex 12 1 1
      vertex 12 -1 1
      vertex 12 1 0
    endloop
  endfacet
  facet normal 0 1 0
    outer loop
      vertex 9.93709 1 0
      vertex 9.93709 1 1
      vertex 12 1 0
    endloop
  endfacet
  facet normal 0 1 0
    outer loop
      vertex 12 1 0
      vertex 9.93709 1 1
      vertex 12 1 1
    endloop
  endfacet
  facet normal 0.998027 0.0627905 0
    outer loop
      vertex 9.93709 1 0
      vertex 9.92115 1.25333 0
      vertex 9.92115 1.25333 3
    endloop
  endfacet
  facet normal 0.998027 0.0627905 0
    outer loop
      vertex 9.93709 1 1
      vertex 9.93709 1 0
      vertex 9.92115 1.25333 3
    endloop
  endfacet
  facet normal 0.998027 0.0627905 0
    outer loop
      vertex 10 0 3
      vertex 9.93709 1 1
      vertex 9.92115 1.25333 3
    endloop
  endfacet
  facet normal 0.998027 0.0627905 0
    outer loop
      vertex 10 0 1
      vertex 9.93709 1 1
      vertex 10 0 3
    endloop
  endfacet
  facet normal 0.982287 0.187381 0
    outer loop
      vertex 9.92115 1.25333 0
      vertex 9.68583 2.4869 0
      vertex 9.68583 2.4869 3
    endloop
  endfacet
  facet normal 0.982287 0.187381 0
    outer loop
      vertex 9.92115 1.25333 3
      vertex 9.92115 1.25333 0
      vertex 9.68583 2.4869 3
    endloop
  endfacet
  facet normal 0.951056 0.309017 0
    outer loop
      vertex 9.68583 2.4869 0
      vertex 9.29777 3.68125 0
      vertex 9.29777 3.68125 3
    endloop
  endfacet
  facet normal 0.951056 0.309017 0
    outer loop
      vertex 9.68583 2.4869 3
      vertex 9.68583 2.4869 0
      vertex 9.29777 3.68125 3
    endloop
  endfacet
  facet normal 0.904827 0.425779 0
    outer loop
      vertex 9.29777 3.68125 0
      vertex 8.76307 4.81754 0
      vertex 8.76307 4.81754 3
    endloop
  endfacet
  facet normal 0.904827 0.425779 0
    outer loop
      vertex 9.29777 3.68125 3
      vertex 9.29777 3.68125 0
      vertex 8.76307 4.81754 3
    endloop
  endfacet
  facet normal 0.844328 0.535827 0
    outer loop
      vertex 8.76307 4.81754 0
      vertex 8.09017 5.87785 0
      vertex 8.09017 5.87785 3
    endloop
  endfacet
  facet normal 0.844328 0.535827 0
    outer loop
      vertex 8.76307 4.81754 3
      vertex 8.76307 4.81754 0
      vertex 8.09017 5.87785 3
    endloop
  endfacet
  facet normal 0.770513 0.637424 0
    outer loop
      vertex 8.09017 5.87785 0
      vertex 7.28969 6.84547 0
      vertex 7.28969 6.84547 3
    endloop
  endfacet
  facet normal 0.770513 0.637424 0
    outer loop
      vertex 8.09017 5.87785 3
      vertex 8.09017 5.87785 0
      vertex 7.28969 6.84547 3
    endloop
  endfacet
  facet normal 0.684547 0.728969 0
    outer loop
      vertex 6.37424 7.70513 0
      vertex 6.37424 7.70513 3
      vertex 7.28969 6.84547 0
    endloop
  endfacet
  facet normal 0.684547 0.728969 0
    outer loop
      vertex 7.28969 6.84547 0
      vertex 6.37424 7.70513 3
      vertex 7.28969 6.84547 3
    endloop
  endfacet
  facet normal 0.587785 0.809017 0
    outer loop
      vertex 5.35827 8.44328 1
      vertex 5.35827 8.44328 3
      vertex 5.83109 8.09975 1
    endloop
  endfacet
  facet normal 0.587785 0.809017 0
    outer loop
      vertex 5.83109 8.09975 1
      vertex 5.35827 8.44328 3
      vertex 6.37424 7.70513 3
    endloop
  endfacet
  facet normal 0.587785 0.809017 0
    outer loop
      vertex 5.83109 8.09975 1
      vertex 6.37424 7.70513 3
      vertex 6.37424 7.70513 0
    endloop
  endfacet
  facet normal 0.587785 0.809017 0
    outer loop
      vertex 5.83109 8.09975 1
      vertex 6.37424 7.70513 0
      vertex 5.83109 8.09975 0
    endloop
  endfacet
  facet normal 0.866025 -0.5 0
    outer loop
      vertex 5.83109 8.09975 1
      vertex 5.83109 8.09975 0
      vertex 6.86603 9.8923 0
    endloop
  endfacet
  facet normal 0.866025 -0.5 0
    outer loop
      vertex 6.86603 9.8923 1
      vertex 5.83109 8.09975 1
      vertex 6.86603 9.8923 0
    endloop
  endfacet
  facet normal 0.5 0.866025 0
    outer loop
      vertex 5.13397 10.8923 0
      vertex 5.13397 10.8923 1
      vertex 6.86603 9.8923 0
    endloop
  endfacet
  facet normal 0.5 0.866025 0
    outer loop
      vertex 6.86603 9.8923 0
      vertex 5.13397 10.8923 1
      vertex 6.86603 9.8923 1
    endloop
  endfacet
  facet normal -0.866025 0.5 0
    outer loop
      vertex 4.10439 9.10901 0
      vertex 4.10439 9.10901 1
      vertex 5.13397 10.8923 0
    endloop
  endfacet
  facet normal -0.866025 0.5 0
    outer loop
      vertex 5.13397 10.8923 0
      vertex 4.10439 9.10901 1
      vertex 5.13397 10.8923 1
    endloop
  endfacet
  facet normal 0.368124 0.929777 0
    outer loop
      vertex 3.09017 9.51056 0
      vertex 3.09017 9.51056 3
      vertex 4.10439 9.10901 0
    endloop
  endfacet
  facet normal 0.368124 0.929777 0
    outer loop
      vertex 4.10439 9.10901 1
      vertex 3.09017 9.51056 3
      vertex 4.25779 9.04827 3
    endloop
  endfacet
  facet normal 0.368124 0.929777 0
    outer loop
      vertex 4.10439 9.10901 0
      vertex 3.09017 9.51056 3
      vertex 4.10439 9.10901 1
    endloop
  endfacet
  facet normal 0.368124 0.929777 0
    outer loop
      vertex 4.10439 9.10901 1
      vertex 4.25779 9.04827 3
      vertex 4.25779 9.04827 1
    endloop
  endfacet
  facet normal 0.24869 0.968583 0
    outer loop
      vertex 1.87381 9.82287 0
      vertex 1.87381 9.82287 3
      vertex 3.09017 9.51056 0
    endloop
  endfacet
  facet normal 0.24869 0.968583 0
    outer loop
      vertex 3.09017 9.51056 0
      vertex 1.87381 9.82287 3
      vertex 3.09017 9.51056 3
    endloop
  endfacet
  facet normal 0.125333 0.992115 0
    outer loop
      vertex 0.627905 9.98027 0
      vertex 0.627905 9.98027 3
      vertex 1.87381 9.82287 0
    endloop
  endfacet
  facet normal 0.125333 0.992115 0
    outer loop
      vertex 1.87381 9.82287 0
      vertex 0.627905 9.98027 3
      vertex 1.87381 9.82287 3
    endloop
  endfacet
  facet normal 0 1 0
    outer loop
      vertex -0.627905 9.98027 0
      vertex -0.627905 9.98027 3
      vertex 0.627905 9.98027 0
    endloop
  endfacet
  facet normal 0 1 0
    outer loop
      vertex 0.627905 9.98027 0
      vertex -0.627905 9.98027 3
      vertex 0.627905 9.98027 3
    endloop
  endfacet
  facet normal -0.125333 0.992115 0
    outer loop
      vertex -1.87381 9.82287 0
      vertex -1.87381 9.82287 3
      vertex -0.627905 9.98027 0
    endloop
  endfacet
  facet normal -0.125333 0.992115 0
    outer loop
      vertex -0.627905 9.98027 0
      vertex -1.87381 9.82287 3
      vertex -0.627905 9.98027 3
    endloop
  endfacet
  facet normal -0.24869 0.968583 0
    outer loop
      vertex -3.09017 9.51056 0
      vertex -3.09017 9.51056 3
      vertex -1.87381 9.82287 0
    endloop
  endfacet
  facet normal -0.24869 0.968583 0
    outer loop
      vertex -1.87381 9.82287 0
      vertex -3.09017 9.51056 3
      vertex -1.87381 9.82287 3
    endloop
  endfacet
  facet normal -0.368124 0.929777 0
    outer loop
      vertex -4.25779 9.04827 1
      vertex -4.25779 9.04827 3
      vertex -4.10439 9.10901 1
    endloop
  endfacet
  facet normal -0.368124 0.929777 0
    outer loop
      vertex -4.10439 9.10901 1
      vertex -4.25779 9.04827 3
      vertex -3.09017 9.51056 3
    endloop
  endfacet
  facet normal -0.368124 0.929777 0
    outer loop
      vertex -4.10439 9.10901 1
      vertex -3.09017 9.51056 3
      vertex -3.09017 9.51056 0
    endloop
  endfacet
  facet normal -0.368124 0.929777 0
    outer loop
      vertex -4.10439 9.10901 1
      vertex -3.09017 9.51056 0
      vertex -4.10439 9.10901 0
    endloop
  endfacet
  facet normal 0.866025 0.5 0
    outer loop
      vertex -4.10439 9.10901 0
      vertex -5.13397 10.8923 0
      vertex -5.13397 10.8923 1
    endloop
  endfacet
  facet normal 0.866025 0.5 0
    outer loop
      vertex -4.10439 9.10901 1
      vertex -4.10439 9.10901 0
      vertex -5.13397 10.8923 1
    endloop
  endfacet
  facet normal -0.5 0.866025 0
    outer loop
      vertex -6.86603 9.8923 0
      vertex -6.86603 9.8923 1
      vertex -5.13397 10.8923 0
    endloop
  endfacet
  facet normal -0.5 0.866025 0
    outer loop
      vertex -5.13397 10.8923 0
      vertex -6.86603 9.8923 1
      vertex -5.13397 10.8923 1
    endloop
  endfacet
  facet normal -0.866025 -0.5 0
    outer loop
      vertex -6.86603 9.8923 0
      vertex -5.83109 8.09975 0
      vertex -6.86603 9.8923 1
    endloop
  endfacet
  facet normal -0.866025 -0.5 0
    outer loop
      vertex -6.86603 9.8923 1
      vertex -5.83109 8.09975 0
      vertex -5.83109 8.09975 1
    endloop
  endfacet
  facet normal -0.587785 0.809017 0
    outer loop
      vertex -6.37424 7.70513 0
      vertex -6.37424 7.70513 3
      vertex -5.83109 8.09975 0
    endloop
  endfacet
  facet normal -0.587785 0.809017 0
    outer loop
      vertex -5.83109 8.09975 1
      vertex -6.37424 7.70513 3
      vertex -5.35827 8.44328 3
    endloop
  endfacet
  facet normal -0.587785 0.809017 0
    outer loop
      vertex -5.83109 8.09975 0
      vertex -6.37424 7.70513 3
      vertex -5.83109 8.09975 1
    endloop
  endfacet
  facet normal -0.587785 0.809017 0
    outer loop
      vertex -5.83109 8.09975 1
      vertex -5.35827 8.44328 3
      vertex -5.35827 8.44328 1
    endloop
  endfacet
  facet normal -0.684547 0.728969 0
    outer loop
      vertex -7.28969 6.84547 0
      vertex -7.28969 6.84547 3
      vertex -6.37424 7.70513 0
    endloop
  endfacet
  facet normal -0.684547 0.728969 0
    outer loop
      vertex -6.37424 7.70513 0
      vertex -7.28969 6.84547 3
      vertex -6.37424 7.70513 3
    endloop
  endfacet
  facet normal -0.770513 0.637424 0
    outer loop
      vertex -8.09017 5.87785 0
      vertex -8.09017 5.87785 3
      vertex -7.28969 6.84547 0
    endloop
  endfacet
  facet normal -0.770513 0.637424 0
    outer loop
      vertex -7.28969 6.84547 0
      vertex -8.09017 5.87785 3
      vertex -7.28969 6.84547 3
    endloop
  endfacet
  facet normal -0.844328 0.535827 0
    outer loop
      vertex -8.76307 4.81754 0
      vertex -8.76307 4.81754 3
      vertex -8.09017 5.87785 0
    endloop
  endfacet
  facet normal -0.844328 0.535827 0
    outer loop
      vertex -8.09017 5.87785 0
      vertex -8.76307 4.81754 3
      vertex -8.09017 5.87785 3
    endloop
  endfacet
  facet normal -0.904827 0.425779 0
    outer loop
      vertex -9.29777 3.68125 0
      vertex -9.29777 3.68125 3
      vertex -8.76307 4.81754 0
    endloop
  endfacet
  facet normal -0.904827 0.425779 0
    outer loop
      vertex -8.76307 4.81754 0
      vertex -9.29777 3.68125 3
      vertex -8.76307 4.81754 3
    endloop
  endfacet
  facet normal -0.951056 0.309017 0
    outer loop
      vertex -9.68583 2.4869 0
      vertex -9.68583 2.4869 3
      vertex -9.29777 3.68125 0
    endloop
  endfacet
  facet normal -0.951056 0.309017 0
    outer loop
      vertex -9.29777 3.68125 0
      vertex -9.68583 2.4869 3
      vertex -9.29777 3.68125 3
    endloop
  endfacet
  facet normal -0.982287 0.187381 0
    outer loop
      vertex -9.92115 1.25333 0
      vertex -9.92115 1.25333 3
      vertex -9.68583 2.4869 0
    endloop
  endfacet
  facet normal -0.982287 0.187381 0
    outer loop
      vertex -9.68583 2.4869 0
      vertex -9.92115 1.25333 3
      vertex -9.68583 2.4869 3
    endloop
  endfacet
  facet normal -0.998027 0.0627905 0
    outer loop
      vertex -10 0 1
      vertex -10 0 3
      vertex -9.93709 1 1
    endloop
  endfacet
  facet normal -0.998027 0.0627905 0
    outer loop
      vertex -9.93709 1 1
      vertex -10 0 3
      vertex -9.92115 1.25333 3
    endloop
  endfacet
  facet normal -0.998027 0.0627905 0
    outer loop
      vertex -9.93709 1 1
      vertex -9.92115 1.25333 3
      vertex -9.92115 1.25333 0
    endloop
  endfacet
  facet normal -0.998027 0.0627905 0
    outer loop
      vertex -9.93709 1 1
      vertex -9.92115 1.25333 0
      vertex -9.93709 1 0
    endloop
  endfacet
  facet normal 0.998027 -0.0627907 0
    outer loop
      vertex -4.46452 0.564 0
      vertex -4.46452 0.564 4
      vertex -4.5 0 4
    endloop
  endfacet
  facet normal 0.998027 -0.0627907 0
    outer loop
      vertex -4.5 0 0
      vertex -4.46452 0.564 0
      vertex -4.5 0 4
    endloop
  endfacet
  facet normal 0.998027 0.0627907 0
    outer loop
      vertex -4.5 0 4
      vertex -4.46452 -0.564 4
      vertex -4.46452 -0.564 0
    endloop
  endfacet
  facet normal 0.998027 0.0627907 0
    outer loop
      vertex -4.5 0 0
      vertex -4.5 0 4
      vertex -4.46452 -0.564 0
    endloop
  endfacet
  facet normal 0.982287 -0.187382 0
    outer loop
      vertex -4.35862 1.1191 0
      vertex -4.35862 1.1191 3
      vertex -4.40869 0.856642 3
    endloop
  endfacet
  facet normal 0.982287 -0.187382 0
    outer loop
      vertex -4.46452 0.564 4
      vertex -4.35862 1.1191 0
      vertex -4.40869 0.856642 3
    endloop
  endfacet
  facet normal 0.982287 -0.187382 0
    outer loop
      vertex -4.35862 1.1191 3.57227
      vertex -4.35862 1.1191 4
      vertex -4.40869 0.856642 3
    endloop
  endfacet
  facet normal 0.982287 -0.187382 0
    outer loop
      vertex -4.35862 1.1191 4
      vertex -4.46452 0.564 4
      vertex -4.40869 0.856642 3
    endloop
  endfacet
  facet normal 0.982287 -0.187382 0
    outer loop
      vertex -4.46452 0.564 4
      vertex -4.46452 0.564 0
      vertex -4.35862 1.1191 0
    endloop
  endfacet
  facet normal 0.951057 -0.309017 0
    outer loop
      vertex -4.18399 1.65656 0
      vertex -4.18399 1.65656 3
      vertex -4.35862 1.1191 3
    endloop
  endfacet
  facet normal 0.951057 -0.309017 0
    outer loop
      vertex -4.35862 1.1191 0
      vertex -4.18399 1.65656 0
      vertex -4.35862 1.1191 3
    endloop
  endfacet
  facet normal 0.904827 -0.425778 0
    outer loop
      vertex -3.94338 2.16789 0
      vertex -3.94338 2.16789 3
      vertex -4.18399 1.65656 3
    endloop
  endfacet
  facet normal 0.904827 -0.425778 0
    outer loop
      vertex -4.18399 1.65656 0
      vertex -3.94338 2.16789 0
      vertex -4.18399 1.65656 3
    endloop
  endfacet
  facet normal 0.844328 -0.535827 0
    outer loop
      vertex -3.64058 2.64503 0
      vertex -3.64058 2.64503 3
      vertex -3.94338 2.16789 3
    endloop
  endfacet
  facet normal 0.844328 -0.535827 0
    outer loop
      vertex -3.94338 2.16789 0
      vertex -3.64058 2.64503 0
      vertex -3.94338 2.16789 3
    endloop
  endfacet
  facet normal 0.770514 -0.637424 0
    outer loop
      vertex -3.28036 3.08046 0
      vertex -3.28036 3.08046 3
      vertex -3.64058 2.64503 3
    endloop
  endfacet
  facet normal 0.770514 -0.637424 0
    outer loop
      vertex -3.64058 2.64503 0
      vertex -3.28036 3.08046 0
      vertex -3.64058 2.64503 3
    endloop
  endfacet
  facet normal 0.684547 -0.728968 0
    outer loop
      vertex -2.86841 3.46731 0
      vertex -2.86841 3.46731 3
      vertex -3.28036 3.08046 3
    endloop
  endfacet
  facet normal 0.684547 -0.728968 0
    outer loop
      vertex -3.28036 3.08046 0
      vertex -2.86841 3.46731 0
      vertex -3.28036 3.08046 3
    endloop
  endfacet
  facet normal 0.587785 -0.809017 0
    outer loop
      vertex -2.41122 3.79948 0
      vertex -2.41122 3.79948 3
      vertex -2.86841 3.46731 3
    endloop
  endfacet
  facet normal 0.587785 -0.809017 0
    outer loop
      vertex -2.86841 3.46731 0
      vertex -2.41122 3.79948 0
      vertex -2.86841 3.46731 3
    endloop
  endfacet
  facet normal 0.481753 -0.876307 0
    outer loop
      vertex -1.91601 4.07172 0
      vertex -1.91601 4.07172 3
      vertex -2.41122 3.79948 3
    endloop
  endfacet
  facet normal 0.481753 -0.876307 0
    outer loop
      vertex -2.41122 3.79948 0
      vertex -1.91601 4.07172 0
      vertex -2.41122 3.79948 3
    endloop
  endfacet
  facet normal 0.368123 -0.929777 0
    outer loop
      vertex -1.39058 4.27975 0
      vertex -1.39058 4.27975 3
      vertex -1.91601 4.07172 3
    endloop
  endfacet
  facet normal 0.368123 -0.929777 0
    outer loop
      vertex -1.91601 4.07172 0
      vertex -1.39058 4.27975 0
      vertex -1.91601 4.07172 3
    endloop
  endfacet
  facet normal 0.248691 -0.968583 0
    outer loop
      vertex -0.888401 4.40869 3
      vertex -0.843216 4.42029 4
      vertex -1.22914 4.3212 4
    endloop
  endfacet
  facet normal 0.248691 -0.968583 0
    outer loop
      vertex -0.843216 4.42029 0
      vertex -0.843216 4.42029 4
      vertex -0.888401 4.40869 3
    endloop
  endfacet
  facet normal 0.248691 -0.968583 0
    outer loop
      vertex -1.39058 4.27975 0
      vertex -0.843216 4.42029 0
      vertex -1.39058 4.27975 3
    endloop
  endfacet
  facet normal 0.248691 -0.968583 0
    outer loop
      vertex -0.888401 4.40869 3
      vertex -1.39058 4.27975 3
      vertex -0.843216 4.42029 0
    endloop
  endfacet
  facet normal 0.125332 -0.992115 0
    outer loop
      vertex -0.282557 4.49112 0
      vertex -0.282557 4.49112 4
      vertex -0.843216 4.42029 4
    endloop
  endfacet
  facet normal 0.125332 -0.992115 0
    outer loop
      vertex -0.843216 4.42029 0
      vertex -0.282557 4.49112 0
      vertex -0.843216 4.42029 4
    endloop
  endfacet
  facet normal 0 -1 0
    outer loop
      vertex 0.282557 4.49112 0
      vertex 0.282557 4.49112 4
      vertex -0.282557 4.49112 4
    endloop
  endfacet
  facet normal 0 -1 0
    outer loop
      vertex -0.282557 4.49112 0
      vertex 0.282557 4.49112 0
      vertex -0.282557 4.49112 4
    endloop
  endfacet
  facet normal -0.125332 -0.992115 0
    outer loop
      vertex 0.843216 4.42029 0
      vertex 0.843216 4.42029 4
      vertex 0.282557 4.49112 4
    endloop
  endfacet
  facet normal -0.125332 -0.992115 0
    outer loop
      vertex 0.282557 4.49112 0
      vertex 0.843216 4.42029 0
      vertex 0.282557 4.49112 4
    endloop
  endfacet
  facet normal -0.248691 -0.968583 0
    outer loop
      vertex 1.39058 4.27975 0
      vertex 1.39058 4.27975 3
      vertex 0.888401 4.40869 3
    endloop
  endfacet
  facet normal -0.248691 -0.968583 0
    outer loop
      vertex 0.843216 4.42029 0
      vertex 1.39058 4.27975 0
      vertex 0.888401 4.40869 3
    endloop
  endfacet
  facet normal -0.248691 -0.968583 0
    outer loop
      vertex 1.22914 4.3212 4
      vertex 0.843216 4.42029 4
      vertex 0.888401 4.40869 3
    endloop
  endfacet
  facet normal -0.248691 -0.968583 0
    outer loop
      vertex 0.843216 4.42029 4
      vertex 0.843216 4.42029 0
      vertex 0.888401 4.40869 3
    endloop
  endfacet
  facet normal -0.368123 -0.929777 0
    outer loop
      vertex 1.91601 4.07172 0
      vertex 1.91601 4.07172 3
      vertex 1.39058 4.27975 3
    endloop
  endfacet
  facet normal -0.368123 -0.929777 0
    outer loop
      vertex 1.39058 4.27975 0
      vertex 1.91601 4.07172 0
      vertex 1.39058 4.27975 3
    endloop
  endfacet
  facet normal -0.481753 -0.876307 0
    outer loop
      vertex 2.41122 3.79948 0
      vertex 2.41122 3.79948 3
      vertex 1.91601 4.07172 3
    endloop
  endfacet
  facet normal -0.481753 -0.876307 0
    outer loop
      vertex 1.91601 4.07172 0
      vertex 2.41122 3.79948 0
      vertex 1.91601 4.07172 3
    endloop
  endfacet
  facet normal -0.587785 -0.809017 0
    outer loop
      vertex 2.86841 3.46731 0
      vertex 2.86841 3.46731 3
      vertex 2.41122 3.79948 3
    endloop
  endfacet
  facet normal -0.587785 -0.809017 0
    outer loop
      vertex 2.41122 3.79948 0
      vertex 2.86841 3.46731 0
      vertex 2.41122 3.79948 3
    endloop
  endfacet
  facet normal -0.684547 -0.728968 0
    outer loop
      vertex 3.28036 3.08046 0
      vertex 3.28036 3.08046 3
      vertex 2.86841 3.46731 3
    endloop
  endfacet
  facet normal -0.684547 -0.728968 0
    outer loop
      vertex 2.86841 3.46731 0
      vertex 3.28036 3.08046 0
      vertex 2.86841 3.46731 3
    endloop
  endfacet
  facet normal -0.770514 -0.637424 0
    outer loop
      vertex 3.64058 2.64503 3
      vertex 3.28036 3.08046 3
      vertex 3.64058 2.64503 0
    endloop
  endfacet
  facet normal -0.770514 -0.637424 0
    outer loop
      vertex 3.64058 2.64503 0
      vertex 3.28036 3.08046 3
      vertex 3.28036 3.08046 0
    endloop
  endfacet
  facet normal -0.844328 -0.535827 0
    outer loop
      vertex 3.94338 2.16789 3
      vertex 3.64058 2.64503 3
      vertex 3.94338 2.16789 0
    endloop
  endfacet
  facet normal -0.844328 -0.535827 0
    outer loop
      vertex 3.94338 2.16789 0
      vertex 3.64058 2.64503 3
      vertex 3.64058 2.64503 0
    endloop
  endfacet
  facet normal -0.904827 -0.425778 0
    outer loop
      vertex 4.18399 1.65656 3
      vertex 3.94338 2.16789 3
      vertex 4.18399 1.65656 0
    endloop
  endfacet
  facet normal -0.904827 -0.425778 0
    outer loop
      vertex 4.18399 1.65656 0
      vertex 3.94338 2.16789 3
      vertex 3.94338 2.16789 0
    endloop
  endfacet
  facet normal -0.951057 -0.309017 0
    outer loop
      vertex 4.35862 1.1191 3
      vertex 4.18399 1.65656 3
      vertex 4.35862 1.1191 0
    endloop
  endfacet
  facet normal -0.951057 -0.309017 0
    outer loop
      vertex 4.35862 1.1191 0
      vertex 4.18399 1.65656 3
      vertex 4.18399 1.65656 0
    endloop
  endfacet
  facet normal -0.982287 -0.187382 0
    outer loop
      vertex 4.35862 1.1191 3
      vertex 4.46452 0.564 0
      vertex 4.40869 0.856642 3
    endloop
  endfacet
  facet normal -0.982287 -0.187382 0
    outer loop
      vertex 4.46452 0.564 4
      vertex 4.35862 1.1191 4
      vertex 4.40869 0.856642 3
    endloop
  endfacet
  facet normal -0.982287 -0.187382 0
    outer loop
      vertex 4.46452 0.564 4
      vertex 4.40869 0.856642 3
      vertex 4.46452 0.564 0
    endloop
  endfacet
  facet normal -0.982287 -0.187382 0
    outer loop
      vertex 4.46452 0.564 0
      vertex 4.35862 1.1191 3
      vertex 4.35862 1.1191 0
    endloop
  endfacet
  facet normal -0.982287 -0.187382 0
    outer loop
      vertex 4.40869 0.856642 3
      vertex 4.35862 1.1191 4
      vertex 4.35862 1.1191 3.57227
    endloop
  endfacet
  facet normal -0.998027 -0.0627907 0
    outer loop
      vertex 4.5 0 4
      vertex 4.46452 0.564 4
      vertex 4.5 0 0
    endloop
  endfacet
  facet normal -0.998027 -0.0627907 0
    outer loop
      vertex 4.5 0 0
      vertex 4.46452 0.564 4
      vertex 4.46452 0.564 0
    endloop
  endfacet
  facet normal -0.998027 0.0627907 0
    outer loop
      vertex 4.5 0 4
      vertex 4.5 0 0
      vertex 4.46452 -0.564 4
    endloop
  endfacet
  facet normal -0.998027 0.0627907 0
    outer loop
      vertex 4.46452 -0.564 4
      vertex 4.5 0 0
      vertex 4.46452 -0.564 0
    endloop
  endfacet
  facet normal -0.982287 0.187382 0
    outer loop
      vertex 4.40869 -0.856642 3
      vertex 4.35862 -1.1191 3.57227
      vertex 4.35862 -1.1191 4
    endloop
  endfacet
  facet normal -0.982287 0.187382 0
    outer loop
      vertex 4.40869 -0.856642 3
      vertex 4.35862 -1.1191 4
      vertex 4.46452 -0.564 4
    endloop
  endfacet
  facet normal -0.982287 0.187382 0
    outer loop
      vertex 4.40869 -0.856642 3
      vertex 4.46452 -0.564 4
      vertex 4.46452 -0.564 0
    endloop
  endfacet
  facet normal -0.982287 0.187382 0
    outer loop
      vertex 4.40869 -0.856642 3
      vertex 4.46452 -0.564 0
      vertex 4.35862 -1.1191 3
    endloop
  endfacet
  facet normal -0.982287 0.187382 0
    outer loop
      vertex 4.46452 -0.564 0
      vertex 4.35862 -1.1191 0
      vertex 4.35862 -1.1191 3
    endloop
  endfacet
  facet normal -0.951057 0.309017 0
    outer loop
      vertex 4.35862 -1.1191 3
      vertex 4.35862 -1.1191 0
      vertex 4.18399 -1.65656 3
    endloop
  endfacet
  facet normal -0.951057 0.309017 0
    outer loop
      vertex 4.18399 -1.65656 3
      vertex 4.35862 -1.1191 0
      vertex 4.18399 -1.65656 0
    endloop
  endfacet
  facet normal -0.904827 0.425778 0
    outer loop
      vertex 4.18399 -1.65656 3
      vertex 4.18399 -1.65656 0
      vertex 3.94338 -2.16789 3
    endloop
  endfacet
  facet normal -0.904827 0.425778 0
    outer loop
      vertex 3.94338 -2.16789 3
      vertex 4.18399 -1.65656 0
      vertex 3.94338 -2.16789 0
    endloop
  endfacet
  facet normal -0.844328 0.535827 0
    outer loop
      vertex 3.94338 -2.16789 3
      vertex 3.94338 -2.16789 0
      vertex 3.64058 -2.64503 3
    endloop
  endfacet
  facet normal -0.844328 0.535827 0
    outer loop
      vertex 3.64058 -2.64503 3
      vertex 3.94338 -2.16789 0
      vertex 3.64058 -2.64503 0
    endloop
  endfacet
  facet normal -0.770514 0.637424 0
    outer loop
      vertex 3.64058 -2.64503 3
      vertex 3.64058 -2.64503 0
      vertex 3.28036 -3.08046 3
    endloop
  endfacet
  facet normal -0.770514 0.637424 0
    outer loop
      vertex 3.28036 -3.08046 3
      vertex 3.64058 -2.64503 0
      vertex 3.28036 -3.08046 0
    endloop
  endfacet
  facet normal -0.684547 0.728968 0
    outer loop
      vertex 3.28036 -3.08046 3
      vertex 3.28036 -3.08046 0
      vertex 2.86841 -3.46731 3
    endloop
  endfacet
  facet normal -0.684547 0.728968 0
    outer loop
      vertex 2.86841 -3.46731 3
      vertex 3.28036 -3.08046 0
      vertex 2.86841 -3.46731 0
    endloop
  endfacet
  facet normal -0.587785 0.809017 0
    outer loop
      vertex 2.86841 -3.46731 3
      vertex 2.86841 -3.46731 0
      vertex 2.41122 -3.79948 3
    endloop
  endfacet
  facet normal -0.587785 0.809017 0
    outer loop
      vertex 2.41122 -3.79948 3
      vertex 2.86841 -3.46731 0
      vertex 2.41122 -3.79948 0
    endloop
  endfacet
  facet normal -0.481753 0.876307 0
    outer loop
      vertex 2.41122 -3.79948 3
      vertex 2.41122 -3.79948 0
      vertex 1.91601 -4.07172 3
    endloop
  endfacet
  facet normal -0.481753 0.876307 0
    outer loop
      vertex 1.91601 -4.07172 3
      vertex 2.41122 -3.79948 0
      vertex 1.91601 -4.07172 0
    endloop
  endfacet
  facet normal -0.368123 0.929777 0
    outer loop
      vertex 1.91601 -4.07172 3
      vertex 1.91601 -4.07172 0
      vertex 1.39058 -4.27975 3
    endloop
  endfacet
  facet normal -0.368123 0.929777 0
    outer loop
      vertex 1.39058 -4.27975 3
      vertex 1.91601 -4.07172 0
      vertex 1.39058 -4.27975 0
    endloop
  endfacet
  facet normal -0.248691 0.968583 0
    outer loop
      vertex 1.22914 -4.3212 4
      vertex 0.888401 -4.40869 3
      vertex 0.843216 -4.42029 4
    endloop
  endfacet
  facet normal -0.248691 0.968583 0
    outer loop
      vertex 1.39058 -4.27975 0
      vertex 0.888401 -4.40869 3
      vertex 1.39058 -4.27975 3
    endloop
  endfacet
  facet normal -0.248691 0.968583 0
    outer loop
      vertex 0.843216 -4.42029 0
      vertex 0.888401 -4.40869 3
      vertex 1.39058 -4.27975 0
    endloop
  endfacet
  facet normal -0.248691 0.968583 0
    outer loop
      vertex 0.843216 -4.42029 4
      vertex 0.888401 -4.40869 3
      vertex 0.843216 -4.42029 0
    endloop
  endfacet
  facet normal -0.125332 0.992115 0
    outer loop
      vertex 0.843216 -4.42029 4
      vertex 0.843216 -4.42029 0
      vertex 0.282557 -4.49112 4
    endloop
  endfacet
  facet normal -0.125332 0.992115 0
    outer loop
      vertex 0.282557 -4.49112 4
      vertex 0.843216 -4.42029 0
      vertex 0.282557 -4.49112 0
    endloop
  endfacet
  facet normal 0 1 0
    outer loop
      vertex 0.282557 -4.49112 4
      vertex 0.282557 -4.49112 0
      vertex -0.282557 -4.49112 4
    endloop
  endfacet
  facet normal 0 1 0
    outer loop
      vertex -0.282557 -4.49112 4
      vertex 0.282557 -4.49112 0
      vertex -0.282557 -4.49112 0
    endloop
  endfacet
  facet normal 0.125332 0.992115 0
    outer loop
      vertex -0.282557 -4.49112 4
      vertex -0.282557 -4.49112 0
      vertex -0.843216 -4.42029 4
    endloop
  endfacet
  facet normal 0.125332 0.992115 0
    outer loop
      vertex -0.843216 -4.42029 4
      vertex -0.282557 -4.49112 0
      vertex -0.843216 -4.42029 0
    endloop
  endfacet
  facet normal 0.248691 0.968583 0
    outer loop
      vertex -0.888401 -4.40869 3
      vertex -1.22914 -4.3212 4
      vertex -0.843216 -4.42029 4
    endloop
  endfacet
  facet normal 0.248691 0.968583 0
    outer loop
      vertex -0.888401 -4.40869 3
      vertex -0.843216 -4.42029 4
      vertex -0.843216 -4.42029 0
    endloop
  endfacet
  facet normal 0.248691 0.968583 0
    outer loop
      vertex -0.888401 -4.40869 3
      vertex -0.843216 -4.42029 0
      vertex -1.39058 -4.27975 3
    endloop
  endfacet
  facet normal 0.248691 0.968583 0
    outer loop
      vertex -0.843216 -4.42029 0
      vertex -1.39058 -4.27975 0
      vertex -1.39058 -4.27975 3
    endloop
  endfacet
  facet normal 0.368123 0.929777 0
    outer loop
      vertex -1.39058 -4.27975 3
      vertex -1.39058 -4.27975 0
      vertex -1.91601 -4.07172 3
    endloop
  endfacet
  facet normal 0.368123 0.929777 0
    outer loop
      vertex -1.91601 -4.07172 3
      vertex -1.39058 -4.27975 0
      vertex -1.91601 -4.07172 0
    endloop
  endfacet
  facet normal 0.481753 0.876307 0
    outer loop
      vertex -1.91601 -4.07172 3
      vertex -1.91601 -4.07172 0
      vertex -2.41122 -3.79948 3
    endloop
  endfacet
  facet normal 0.481753 0.876307 0
    outer loop
      vertex -2.41122 -3.79948 3
      vertex -1.91601 -4.07172 0
      vertex -2.41122 -3.79948 0
    endloop
  endfacet
  facet normal 0.587785 0.809017 0
    outer loop
      vertex -2.41122 -3.79948 3
      vertex -2.41122 -3.79948 0
      vertex -2.86841 -3.46731 3
    endloop
  endfacet
  facet normal 0.587785 0.809017 0
    outer loop
      vertex -2.86841 -3.46731 3
      vertex -2.41122 -3.79948 0
      vertex -2.86841 -3.46731 0
    endloop
  endfacet
  facet normal 0.684547 0.728968 0
    outer loop
      vertex -2.86841 -3.46731 3
      vertex -2.86841 -3.46731 0
      vertex -3.28036 -3.08046 3
    endloop
  endfacet
  facet normal 0.684547 0.728968 0
    outer loop
      vertex -3.28036 -3.08046 3
      vertex -2.86841 -3.46731 0
      vertex -3.28036 -3.08046 0
    endloop
  endfacet
  facet normal 0.770514 0.637424 0
    outer loop
      vertex -3.64058 -2.64503 3
      vertex -3.28036 -3.08046 3
      vertex -3.28036 -3.08046 0
    endloop
  endfacet
  facet normal 0.770514 0.637424 0
    outer loop
      vertex -3.64058 -2.64503 0
      vertex -3.64058 -2.64503 3
      vertex -3.28036 -3.08046 0
    endloop
  endfacet
  facet normal 0.844328 0.535827 0
    outer loop
      vertex -3.94338 -2.16789 3
      vertex -3.64058 -2.64503 3
      vertex -3.64058 -2.64503 0
    endloop
  endfacet
  facet normal 0.844328 0.535827 0
    outer loop
      vertex -3.94338 -2.16789 0
      vertex -3.94338 -2.16789 3
      vertex -3.64058 -2.64503 0
    endloop
  endfacet
  facet normal 0.904827 0.425778 0
    outer loop
      vertex -4.18399 -1.65656 3
      vertex -3.94338 -2.16789 3
      vertex -3.94338 -2.16789 0
    endloop
  endfacet
  facet normal 0.904827 0.425778 0
    outer loop
      vertex -4.18399 -1.65656 0
      vertex -4.18399 -1.65656 3
      vertex -3.94338 -2.16789 0
    endloop
  endfacet
  facet normal 0.951057 0.309017 0
    outer loop
      vertex -4.35862 -1.1191 3
      vertex -4.18399 -1.65656 3
      vertex -4.18399 -1.65656 0
    endloop
  endfacet
  facet normal 0.951057 0.309017 0
    outer loop
      vertex -4.35862 -1.1191 0
      vertex -4.35862 -1.1191 3
      vertex -4.18399 -1.65656 0
    endloop
  endfacet
  facet normal 0.982287 0.187382 0
    outer loop
      vertex -4.46452 -0.564 4
      vertex -4.35862 -1.1191 4
      vertex -4.35862 -1.1191 3.57227
    endloop
  endfacet
  facet normal 0.982287 0.187382 0
    outer loop
      vertex -4.35862 -1.1191 0
      vertex -4.46452 -0.564 4
      vertex -4.40869 -0.856642 3
    endloop
  endfacet
  facet normal 0.982287 0.187382 0
    outer loop
      vertex -4.40869 -0.856642 3
      vertex -4.46452 -0.564 4
      vertex -4.35862 -1.1191 3.57227
    endloop
  endfacet
  facet normal 0.982287 0.187382 0
    outer loop
      vertex -4.35862 -1.1191 0
      vertex -4.40869 -0.856642 3
      vertex -4.35862 -1.1191 3
    endloop
  endfacet
  facet normal 0.982287 0.187382 0
    outer loop
      vertex -4.46452 -0.564 0
      vertex -4.46452 -0.564 4
      vertex -4.35862 -1.1191 0
    endloop
  endfacet
  facet normal 0 0 1
    outer loop
      vertex -9.92115 1.25333 3
      vertex -10 0 3
      vertex -9.92115 -1.25333 3
    endloop
  endfacet
  facet normal 0 0 1
    outer loop
      vertex -9.29777 -3.68125 3
      vertex -9.92115 1.25333 3
      vertex -9.68583 -2.4869 3
    endloop
  endfacet
  facet normal 0 0 1
    outer loop
      vertex -9.68583 -2.4869 3
      vertex -9.92115 1.25333 3
      vertex -9.92115 -1.25333 3
    endloop
  endfacet
  facet normal 0 0 1
    outer loop
      vertex -8.76307 -4.81754 3
      vertex -9.92115 1.25333 3
      vertex -9.29777 -3.68125 3
    endloop
  endfacet
  facet normal 0 0 1
    outer loop
      vertex -8.09017 -5.87785 3
      vertex -9.92115 1.25333 3
      vertex -8.76307 -4.81754 3
    endloop
  endfacet
  facet normal 0 0 1
    outer loop
      vertex -7.28969 -6.84547 3
      vertex -9.92115 1.25333 3
      vertex -8.09017 -5.87785 3
    endloop
  endfacet
  facet normal 0 0 1
    outer loop
      vertex -6.37424 -7.70513 3
      vertex -9.92115 1.25333 3
      vertex -7.28969 -6.84547 3
    endloop
  endfacet
  facet normal 0 0 1
    outer loop
      vertex -5.35827 -8.44328 3
      vertex -9.92115 1.25333 3
      vertex -6.37424 -7.70513 3
    endloop
  endfacet
  facet normal 0 0 1
    outer loop
      vertex -4.25779 -9.04827 3
      vertex -9.92115 1.25333 3
      vertex -5.35827 -8.44328 3
    endloop
  endfacet
  facet normal 0 0 1
    outer loop
      vertex -3.09017 -9.51056 3
      vertex -9.92115 1.25333 3
      vertex -4.25779 -9.04827 3
    endloop
  endfacet
  facet normal 0 0 1
    outer loop
      vertex -1.87381 -9.82287 3
      vertex -9.92115 1.25333 3
      vertex -3.09017 -9.51056 3
    endloop
  endfacet
  facet normal 0 0 1
    outer loop
      vertex -0.627905 -9.98027 3
      vertex -9.92115 1.25333 3
      vertex -1.87381 -9.82287 3
    endloop
  endfacet
  facet normal 0 0 1
    outer loop
      vertex 0.627905 -9.98027 3
      vertex -9.92115 1.25333 3
      vertex -0.627905 -9.98027 3
    endloop
  endfacet
  facet normal 0 0 1
    outer loop
      vertex -2.5 -6.41633 3
      vertex -9.92115 1.25333 3
      vertex 0.627905 -9.98027 3
    endloop
  endfacet
  facet normal 0 0 1
    outer loop
      vertex -6.41633 2.5 3
      vertex -3.28036 3.08046 3
      vertex -2.86841 3.46731 3
    endloop
  endfacet
  facet normal 0 0 1
    outer loop
      vertex -3.64058 2.64503 3
      vertex -3.28036 3.08046 3
      vertex -4.40869 2.5 3
    endloop
  endfacet
  facet normal 0 0 1
    outer loop
      vertex 2.5 6.41633 3
      vertex 2.5 4.40869 3
      vertex 8.09017 5.87785 3
    endloop
  endfacet
  facet normal 0 0 1
    outer loop
      vertex 2.5 6.41633 3
      vertex 7.28969 6.84547 3
      vertex 6.37424 7.70513 3
    endloop
  endfacet
  facet normal 0 0 1
    outer loop
      vertex -4.40869 2.5 3
      vertex -4.40869 0.856642 3
      vertex -4.35862 1.1191 3
    endloop
  endfacet
  facet normal 0 0 1
    outer loop
      vertex 2.5 4.40869 3
      vertex 0.888401 4.40869 3
      vertex 1.39058 4.27975 3
    endloop
  endfacet
  facet normal 0 0 1
    outer loop
      vertex 4.18399 1.65656 3
      vertex 4.35862 1.1191 3
      vertex 4.40869 1.5 3
    endloop
  endfacet
  facet normal 0 0 1
    outer loop
      vertex 1.87381 9.82287 3
      vertex -9.92115 1.25333 3
      vertex 3.09017 9.51056 3
    endloop
  endfacet
  facet normal 0 0 1
    outer loop
      vertex 0.627905 9.98027 3
      vertex -9.92115 1.25333 3
      vertex 1.87381 9.82287 3
    endloop
  endfacet
  facet normal 0 0 1
    outer loop
      vertex -0.627905 9.98027 3
      vertex -9.92115 1.25333 3
      vertex 0.627905 9.98027 3
    endloop
  endfacet
  facet normal 0 0 1
    outer loop
      vertex -1.87381 9.82287 3
      vertex -9.92115 1.25333 3
      vertex -0.627905 9.98027 3
    endloop
  endfacet
  facet normal 0 0 1
    outer loop
      vertex -3.09017 9.51056 3
      vertex -9.92115 1.25333 3
      vertex -1.87381 9.82287 3
    endloop
  endfacet
  facet normal 0 0 1
    outer loop
      vertex -4.25779 9.04827 3
      vertex -9.92115 1.25333 3
      vertex -3.09017 9.51056 3
    endloop
  endfacet
  facet normal 0 0 1
    outer loop
      vertex -5.35827 8.44328 3
      vertex -9.92115 1.25333 3
      vertex -4.25779 9.04827 3
    endloop
  endfacet
  facet normal 0 0 1
    outer loop
      vertex -6.37424 7.70513 3
      vertex -9.92115 1.25333 3
      vertex -5.35827 8.44328 3
    endloop
  endfacet
  facet normal 0 0 1
    outer loop
      vertex -7.28969 6.84547 3
      vertex -9.92115 1.25333 3
      vertex -6.37424 7.70513 3
    endloop
  endfacet
  facet normal 0 0 1
    outer loop
      vertex -8.09017 5.87785 3
      vertex -9.92115 1.25333 3
      vertex -7.28969 6.84547 3
    endloop
  endfacet
  facet normal 0 0 1
    outer loop
      vertex -8.76307 4.81754 3
      vertex -9.92115 1.25333 3
      vertex -8.09017 5.87785 3
    endloop
  endfacet
  facet normal 0 0 1
    outer loop
      vertex -9.29777 3.68125 3
      vertex -9.92115 1.25333 3
      vertex -8.76307 4.81754 3
    endloop
  endfacet
  facet normal 0 0 1
    outer loop
      vertex -9.68583 2.4869 3
      vertex -9.92115 1.25333 3
      vertex -9.29777 3.68125 3
    endloop
  endfacet
  facet normal 0 0 1
    outer loop
      vertex -2.5 -4.40869 3
      vertex -1.91601 -4.07172 3
      vertex -2.41122 -3.79948 3
    endloop
  endfacet
  facet normal 0 0 1
    outer loop
      vertex 6.41633 1.5 3
      vertex 9.68583 -2.4869 3
      vertex 9.92115 -1.25333 3
    endloop
  endfacet
  facet normal 0 0 1
    outer loop
      vertex -1.5 4.40869 3
      vertex -1.5 6.41633 3
      vertex -9.92115 1.25333 3
    endloop
  endfacet
  facet normal 0 0 1
    outer loop
      vertex 1.5 -4.40869 3
      vertex 1.5 -6.41633 3
      vertex 5.35827 -8.44328 3
    endloop
  endfacet
  facet normal 0 0 1
    outer loop
      vertex 2.5 6.41633 3
      vertex 8.09017 5.87785 3
      vertex 7.28969 6.84547 3
    endloop
  endfacet
  facet normal 0 0 1
    outer loop
      vertex 3.28036 3.08046 3
      vertex 3.64058 2.64503 3
      vertex 9.29777 3.68125 3
    endloop
  endfacet
  facet normal 0 0 1
    outer loop
      vertex -0.888401 4.40869 3
      vertex -1.5 4.40869 3
      vertex -1.39058 4.27975 3
    endloop
  endfacet
  facet normal 0 0 1
    outer loop
      vertex -4.40869 2.5 3
      vertex -4.35862 1.1191 3
      vertex -4.18399 1.65656 3
    endloop
  endfacet
  facet normal 0 0 1
    outer loop
      vertex -4.40869 2.5 3
      vertex -4.18399 1.65656 3
      vertex -3.94338 2.16789 3
    endloop
  endfacet
  facet normal 0 0 1
    outer loop
      vertex -1.91601 4.07172 3
      vertex -6.41633 2.5 3
      vertex -2.41122 3.79948 3
    endloop
  endfacet
  facet normal 0 0 1
    outer loop
      vertex -1.5 4.40869 3
      vertex -6.41633 2.5 3
      vertex -1.91601 4.07172 3
    endloop
  endfacet
  facet normal 0 0 1
    outer loop
      vertex -1.39058 4.27975 3
      vertex -1.5 4.40869 3
      vertex -1.91601 4.07172 3
    endloop
  endfacet
  facet normal 0 0 1
    outer loop
      vertex -1.5 6.41633 3
      vertex 2.5 6.41633 3
      vertex 5.35827 8.44328 3
    endloop
  endfacet
  facet normal 0 0 1
    outer loop
      vertex 6.41633 1.5 3
      vertex 10 0 3
      vertex 9.92115 1.25333 3
    endloop
  endfacet
  facet normal 0 0 1
    outer loop
      vertex 6.41633 1.5 3
      vertex 9.92115 -1.25333 3
      vertex 10 0 3
    endloop
  endfacet
  facet normal 0 0 1
    outer loop
      vertex -1.5 6.41633 3
      vertex 5.35827 8.44328 3
      vertex 4.25779 9.04827 3
    endloop
  endfacet
  facet normal 0 0 1
    outer loop
      vertex 3.09017 9.51056 3
      vertex -1.5 6.41633 3
      vertex 4.25779 9.04827 3
    endloop
  endfacet
  facet normal 0 0 1
    outer loop
      vertex 3.09017 9.51056 3
      vertex -9.92115 1.25333 3
      vertex -1.5 6.41633 3
    endloop
  endfacet
  facet normal 0 0 1
    outer loop
      vertex 5.35827 8.44328 3
      vertex 2.5 6.41633 3
      vertex 6.37424 7.70513 3
    endloop
  endfacet
  facet normal 0 0 1
    outer loop
      vertex -2.86841 3.46731 3
      vertex -2.41122 3.79948 3
      vertex -6.41633 2.5 3
    endloop
  endfacet
  facet normal 0 0 1
    outer loop
      vertex -1.5 4.40869 3
      vertex -9.92115 1.25333 3
      vertex -6.41633 2.5 3
    endloop
  endfacet
  facet normal 0 0 1
    outer loop
      vertex 1.39058 4.27975 3
      vertex 1.91601 4.07172 3
      vertex 2.5 4.40869 3
    endloop
  endfacet
  facet normal 0 0 1
    outer loop
      vertex 2.5 4.40869 3
      vertex 1.91601 4.07172 3
      vertex 8.09017 5.87785 3
    endloop
  endfacet
  facet normal 0 0 1
    outer loop
      vertex 8.09017 5.87785 3
      vertex 1.91601 4.07172 3
      vertex 8.76307 4.81754 3
    endloop
  endfacet
  facet normal 0 0 1
    outer loop
      vertex 1.91601 4.07172 3
      vertex 2.41122 3.79948 3
      vertex 8.76307 4.81754 3
    endloop
  endfacet
  facet normal 0 0 1
    outer loop
      vertex 8.76307 4.81754 3
      vertex 2.86841 3.46731 3
      vertex 9.29777 3.68125 3
    endloop
  endfacet
  facet normal 0 0 1
    outer loop
      vertex 2.86841 3.46731 3
      vertex 3.28036 3.08046 3
      vertex 9.29777 3.68125 3
    endloop
  endfacet
  facet normal 0 0 1
    outer loop
      vertex 9.29777 3.68125 3
      vertex 3.64058 2.64503 3
      vertex 9.68583 2.4869 3
    endloop
  endfacet
  facet normal 0 0 1
    outer loop
      vertex 3.64058 2.64503 3
      vertex 3.94338 2.16789 3
      vertex 9.68583 2.4869 3
    endloop
  endfacet
  facet normal 0 0 1
    outer loop
      vertex 6.41633 1.5 3
      vertex 6.41633 -2.5 3
      vertex 9.68583 -2.4869 3
    endloop
  endfacet
  facet normal 0 0 1
    outer loop
      vertex 4.40869 1.5 3
      vertex 6.41633 1.5 3
      vertex 4.18399 1.65656 3
    endloop
  endfacet
  facet normal 0 0 1
    outer loop
      vertex 3.94338 -2.16789 3
      vertex 3.64058 -2.64503 3
      vertex 4.40869 -2.5 3
    endloop
  endfacet
  facet normal 0 0 1
    outer loop
      vertex 9.68583 2.4869 3
      vertex 6.41633 1.5 3
      vertex 9.92115 1.25333 3
    endloop
  endfacet
  facet normal 0 0 1
    outer loop
      vertex 9.68583 2.4869 3
      vertex 4.18399 1.65656 3
      vertex 6.41633 1.5 3
    endloop
  endfacet
  facet normal 0 0 1
    outer loop
      vertex 9.68583 -2.4869 3
      vertex 6.41633 -2.5 3
      vertex 9.29777 -3.68125 3
    endloop
  endfacet
  facet normal 0 0 1
    outer loop
      vertex 9.29777 -3.68125 3
      vertex 4.40869 -2.5 3
      vertex 8.76307 -4.81754 3
    endloop
  endfacet
  facet normal 0 0 1
    outer loop
      vertex 4.40869 -2.5 3
      vertex 4.40869 -0.856642 3
      vertex 4.35862 -1.1191 3
    endloop
  endfacet
  facet normal 0 0 1
    outer loop
      vertex 4.40869 -2.5 3
      vertex 4.35862 -1.1191 3
      vertex 4.18399 -1.65656 3
    endloop
  endfacet
  facet normal 0 0 1
    outer loop
      vertex 4.40869 -2.5 3
      vertex 3.64058 -2.64503 3
      vertex 8.76307 -4.81754 3
    endloop
  endfacet
  facet normal 0 0 1
    outer loop
      vertex 8.76307 -4.81754 3
      vertex 3.28036 -3.08046 3
      vertex 8.09017 -5.87785 3
    endloop
  endfacet
  facet normal 0 0 1
    outer loop
      vertex 3.28036 -3.08046 3
      vertex 2.86841 -3.46731 3
      vertex 8.09017 -5.87785 3
    endloop
  endfacet
  facet normal 0 0 1
    outer loop
      vertex 8.09017 -5.87785 3
      vertex 2.41122 -3.79948 3
      vertex 7.28969 -6.84547 3
    endloop
  endfacet
  facet normal 0 0 1
    outer loop
      vertex 2.41122 -3.79948 3
      vertex 1.91601 -4.07172 3
      vertex 7.28969 -6.84547 3
    endloop
  endfacet
  facet normal 0 0 1
    outer loop
      vertex 7.28969 -6.84547 3
      vertex 1.39058 -4.27975 3
      vertex 6.37424 -7.70513 3
    endloop
  endfacet
  facet normal 0 0 1
    outer loop
      vertex 1.5 -6.41633 3
      vertex -2.5 -6.41633 3
      vertex 1.87381 -9.82287 3
    endloop
  endfacet
  facet normal 0 0 1
    outer loop
      vertex -3.94338 2.16789 3
      vertex -3.64058 2.64503 3
      vertex -4.40869 2.5 3
    endloop
  endfacet
  facet normal 0 0 1
    outer loop
      vertex 1.39058 -4.27975 3
      vertex 1.5 -4.40869 3
      vertex 6.37424 -7.70513 3
    endloop
  endfacet
  facet normal 0 0 1
    outer loop
      vertex 1.39058 -4.27975 3
      vertex 0.888401 -4.40869 3
      vertex 1.5 -4.40869 3
    endloop
  endfacet
  facet normal 0 0 1
    outer loop
      vertex 5.35827 -8.44328 3
      vertex 1.5 -6.41633 3
      vertex 4.25779 -9.04827 3
    endloop
  endfacet
  facet normal 0 0 1
    outer loop
      vertex 1.87381 -9.82287 3
      vertex -2.5 -6.41633 3
      vertex 0.627905 -9.98027 3
    endloop
  endfacet
  facet normal 0 0 1
    outer loop
      vertex -2.5 -4.40869 3
      vertex -1.39058 -4.27975 3
      vertex -1.91601 -4.07172 3
    endloop
  endfacet
  facet normal 0 0 1
    outer loop
      vertex -2.5 -4.40869 3
      vertex -0.888401 -4.40869 3
      vertex -1.39058 -4.27975 3
    endloop
  endfacet
  facet normal 0 0 1
    outer loop
      vertex -2.5 -4.40869 3
      vertex -2.41122 -3.79948 3
      vertex -2.86841 -3.46731 3
    endloop
  endfacet
  facet normal 0 0 1
    outer loop
      vertex -2.5 -6.41633 3
      vertex -6.41633 -1.5 3
      vertex -9.92115 1.25333 3
    endloop
  endfacet
  facet normal 0 0 1
    outer loop
      vertex 3.94338 2.16789 3
      vertex 4.18399 1.65656 3
      vertex 9.68583 2.4869 3
    endloop
  endfacet
  facet normal 0 0 1
    outer loop
      vertex -4.18399 -1.65656 3
      vertex -4.35862 -1.1191 3
      vertex -4.40869 -1.5 3
    endloop
  endfacet
  facet normal 0 0 1
    outer loop
      vertex 2.41122 3.79948 3
      vertex 2.86841 3.46731 3
      vertex 8.76307 4.81754 3
    endloop
  endfacet
  facet normal 0 0 1
    outer loop
      vertex -6.41633 2.5 3
      vertex -4.40869 2.5 3
      vertex -3.28036 3.08046 3
    endloop
  endfacet
  facet normal 0 0 1
    outer loop
      vertex 4.40869 0.856642 3
      vertex 4.40869 1.5 3
      vertex 4.35862 1.1191 3
    endloop
  endfacet
  facet normal 0 0 1
    outer loop
      vertex 1.5 -4.40869 3
      vertex 5.35827 -8.44328 3
      vertex 6.37424 -7.70513 3
    endloop
  endfacet
  facet normal 0 0 1
    outer loop
      vertex 1.91601 -4.07172 3
      vertex 1.39058 -4.27975 3
      vertex 7.28969 -6.84547 3
    endloop
  endfacet
  facet normal 0 0 1
    outer loop
      vertex -4.40869 -0.856642 3
      vertex -4.40869 -1.5 3
      vertex -4.35862 -1.1191 3
    endloop
  endfacet
  facet normal 0 0 1
    outer loop
      vertex 1.5 -6.41633 3
      vertex 1.87381 -9.82287 3
      vertex 3.09017 -9.51056 3
    endloop
  endfacet
  facet normal 0 0 1
    outer loop
      vertex 1.5 -6.41633 3
      vertex 3.09017 -9.51056 3
      vertex 4.25779 -9.04827 3
    endloop
  endfacet
  facet normal 0 0 1
    outer loop
      vertex -4.40869 -1.5 3
      vertex -3.94338 -2.16789 3
      vertex -4.18399 -1.65656 3
    endloop
  endfacet
  facet normal 0 0 1
    outer loop
      vertex -4.40869 -1.5 3
      vertex -3.64058 -2.64503 3
      vertex -3.94338 -2.16789 3
    endloop
  endfacet
  facet normal 0 0 1
    outer loop
      vertex -2.5 -4.40869 3
      vertex -2.86841 -3.46731 3
      vertex -6.41633 -1.5 3
    endloop
  endfacet
  facet normal 0 0 1
    outer loop
      vertex -2.5 -6.41633 3
      vertex -2.5 -4.40869 3
      vertex -6.41633 -1.5 3
    endloop
  endfacet
  facet normal 0 0 1
    outer loop
      vertex -3.28036 -3.08046 3
      vertex -6.41633 -1.5 3
      vertex -2.86841 -3.46731 3
    endloop
  endfacet
  facet normal 0 0 1
    outer loop
      vertex -3.64058 -2.64503 3
      vertex -6.41633 -1.5 3
      vertex -3.28036 -3.08046 3
    endloop
  endfacet
  facet normal 0 0 1
    outer loop
      vertex -4.40869 -1.5 3
      vertex -6.41633 -1.5 3
      vertex -3.64058 -2.64503 3
    endloop
  endfacet
  facet normal 0 0 1
    outer loop
      vertex 4.40869 -2.5 3
      vertex 4.18399 -1.65656 3
      vertex 3.94338 -2.16789 3
    endloop
  endfacet
  facet normal 0 0 1
    outer loop
      vertex 6.41633 -2.5 3
      vertex 4.40869 -2.5 3
      vertex 9.29777 -3.68125 3
    endloop
  endfacet
  facet normal 0 0 1
    outer loop
      vertex 2.86841 -3.46731 3
      vertex 2.41122 -3.79948 3
      vertex 8.09017 -5.87785 3
    endloop
  endfacet
  facet normal 0 0 1
    outer loop
      vertex 3.64058 -2.64503 3
      vertex 3.28036 -3.08046 3
      vertex 8.76307 -4.81754 3
    endloop
  endfacet
  facet normal 0 0 1
    outer loop
      vertex -6.41633 -1.5 3
      vertex -6.41633 2.5 3
      vertex -9.92115 1.25333 3
    endloop
  endfacet
  facet normal -0.481754 -0.876306 0
    outer loop
      vertex -5.35827 -8.44328 3
      vertex -5.35827 -8.44328 1
      vertex -4.25779 -9.04827 1
    endloop
  endfacet
  facet normal -0.481754 -0.876306 0
    outer loop
      vertex -4.25779 -9.04827 3
      vertex -5.35827 -8.44328 3
      vertex -4.25779 -9.04827 1
    endloop
  endfacet
  facet normal 0 0 1
    outer loop
      vertex -5.83109 -8.09975 1
      vertex -6.86603 -9.8923 1
      vertex -5.13397 -10.8923 1
    endloop
  endfacet
  facet normal 0 0 1
    outer loop
      vertex -5.35827 -8.44328 1
      vertex -5.83109 -8.09975 1
      vertex -5.13397 -10.8923 1
    endloop
  endfacet
  facet normal 0 0 1
    outer loop
      vertex -4.10439 -9.10901 1
      vertex -4.25779 -9.04827 1
      vertex -5.13397 -10.8923 1
    endloop
  endfacet
  facet normal 0 0 1
    outer loop
      vertex -4.25779 -9.04827 1
      vertex -5.35827 -8.44328 1
      vertex -5.13397 -10.8923 1
    endloop
  endfacet
  facet normal 0.481754 -0.876306 0
    outer loop
      vertex 4.25779 -9.04827 3
      vertex 4.25779 -9.04827 1
      vertex 5.35827 -8.44328 1
    endloop
  endfacet
  facet normal 0.481754 -0.876306 0
    outer loop
      vertex 5.35827 -8.44328 3
      vertex 4.25779 -9.04827 3
      vertex 5.35827 -8.44328 1
    endloop
  endfacet
  facet normal 0 0 1
    outer loop
      vertex 4.25779 -9.04827 1
      vertex 4.10439 -9.10901 1
      vertex 5.13397 -10.8923 1
    endloop
  endfacet
  facet normal 0 0 1
    outer loop
      vertex 5.35827 -8.44328 1
      vertex 4.25779 -9.04827 1
      vertex 6.86603 -9.8923 1
    endloop
  endfacet
  facet normal 0 0 1
    outer loop
      vertex 6.86603 -9.8923 1
      vertex 4.25779 -9.04827 1
      vertex 5.13397 -10.8923 1
    endloop
  endfacet
  facet normal 0 0 1
    outer loop
      vertex 5.83109 -8.09975 1
      vertex 5.35827 -8.44328 1
      vertex 6.86603 -9.8923 1
    endloop
  endfacet
  facet normal 0 0 1
    outer loop
      vertex 10 0 1
      vertex 9.93709 -1 1
      vertex 12 -1 1
    endloop
  endfacet
  facet normal 0 0 1
    outer loop
      vertex 9.93709 1 1
      vertex 10 0 1
      vertex 12 1 1
    endloop
  endfacet
  facet normal 0 0 1
    outer loop
      vertex 12 1 1
      vertex 10 0 1
      vertex 12 -1 1
    endloop
  endfacet
  facet normal 0 0 1
    outer loop
      vertex 5.13397 10.8923 1
      vertex 4.10439 9.10901 1
      vertex 4.25779 9.04827 1
    endloop
  endfacet
  facet normal 0 0 1
    outer loop
      vertex 5.35827 8.44328 1
      vertex 5.13397 10.8923 1
      vertex 4.25779 9.04827 1
    endloop
  endfacet
  facet normal 0 0 1
    outer loop
      vertex 5.35827 8.44328 1
      vertex 5.83109 8.09975 1
      vertex 5.13397 10.8923 1
    endloop
  endfacet
  facet normal 0 0 1
    outer loop
      vertex 5.83109 8.09975 1
      vertex 6.86603 9.8923 1
      vertex 5.13397 10.8923 1
    endloop
  endfacet
  facet normal 0.481754 0.876306 0
    outer loop
      vertex 4.25779 9.04827 1
      vertex 4.25779 9.04827 3
      vertex 5.35827 8.44328 1
    endloop
  endfacet
  facet normal 0.481754 0.876306 0
    outer loop
      vertex 5.35827 8.44328 1
      vertex 4.25779 9.04827 3
      vertex 5.35827 8.44328 3
    endloop
  endfacet
  facet normal 0 0 1
    outer loop
      vertex -5.13397 10.8923 1
      vertex -6.86603 9.8923 1
      vertex -5.83109 8.09975 1
    endloop
  endfacet
  facet normal 0 0 1
    outer loop
      vertex -4.25779 9.04827 1
      vertex -5.13397 10.8923 1
      vertex -5.35827 8.44328 1
    endloop
  endfacet
  facet normal 0 0 1
    outer loop
      vertex -5.35827 8.44328 1
      vertex -5.13397 10.8923 1
      vertex -5.83109 8.09975 1
    endloop
  endfacet
  facet normal 0 0 1
    outer loop
      vertex -4.10439 9.10901 1
      vertex -5.13397 10.8923 1
      vertex -4.25779 9.04827 1
    endloop
  endfacet
  facet normal -0.481754 0.876306 0
    outer loop
      vertex -5.35827 8.44328 1
      vertex -5.35827 8.44328 3
      vertex -4.25779 9.04827 1
    endloop
  endfacet
  facet normal -0.481754 0.876306 0
    outer loop
      vertex -4.25779 9.04827 1
      vertex -5.35827 8.44328 3
      vertex -4.25779 9.04827 3
    endloop
  endfacet
  facet normal 0 0 -1
    outer loop
      vertex -4.35862 1.1191 4
      vertex -4.3212 1.23427 4
      vertex -4.46452 0.564 4
    endloop
  endfacet
  facet normal 0 0 -1
    outer loop
      vertex -4.46452 0.564 4
      vertex -4.3212 1.23427 4
      vertex -4.3212 -1.23427 4
    endloop
  endfacet
  facet normal 0 0 -1
    outer loop
      vertex -4.46452 0.564 4
      vertex -4.3212 -1.23427 4
      vertex -4.35862 -1.1191 4
    endloop
  endfacet
  facet normal 0 0 -1
    outer loop
      vertex -4.46452 0.564 4
      vertex -4.35862 -1.1191 4
      vertex -4.46452 -0.564 4
    endloop
  endfacet
  facet normal 0 0 -1
    outer loop
      vertex -4.46452 0.564 4
      vertex -4.46452 -0.564 4
      vertex -4.5 0 4
    endloop
  endfacet
  facet normal 0.951057 -0.309017 0
    outer loop
      vertex -4.3212 1.23427 4
      vertex -4.35862 1.1191 4
      vertex -4.35862 1.1191 3.57227
    endloop
  endfacet
  facet normal 0.996195 -1.21999e-16 -0.0871557
    outer loop
      vertex -4.35862 -1.1191 3.57227
      vertex -4.40869 -1.5 3
      vertex -4.40869 -0.856642 3
    endloop
  endfacet
  facet normal 0.996195 -1.21999e-16 -0.0871557
    outer loop
      vertex -4.3212 -1.23427 4
      vertex -4.40869 -1.5 3
      vertex -4.35862 -1.1191 3.57227
    endloop
  endfacet
  facet normal 0.996195 -1.21999e-16 -0.0871557
    outer loop
      vertex -3.19647 -1.5 16.8558
      vertex -4.40869 -1.5 3
      vertex -4.3212 -1.23427 4
    endloop
  endfacet
  facet normal 0.996195 -1.21999e-16 -0.0871557
    outer loop
      vertex -4.40869 2.5 3
      vertex -3.19647 -1.5 16.8558
      vertex -4.3212 1.23427 4
    endloop
  endfacet
  facet normal 0.996195 -1.21999e-16 -0.0871557
    outer loop
      vertex -4.40869 2.5 3
      vertex -4.3212 1.23427 4
      vertex -4.35862 1.1191 3.57227
    endloop
  endfacet
  facet normal 0.996195 -1.21999e-16 -0.0871557
    outer loop
      vertex -4.40869 2.5 3
      vertex -4.35862 1.1191 3.57227
      vertex -4.40869 0.856642 3
    endloop
  endfacet
  facet normal 0.996195 -1.21999e-16 -0.0871557
    outer loop
      vertex -3.19647 2.5 16.8558
      vertex -3.19647 -1.5 16.8558
      vertex -4.40869 2.5 3
    endloop
  endfacet
  facet normal 0.996195 -1.21999e-16 -0.0871557
    outer loop
      vertex -4.3212 -1.23427 4
      vertex -4.3212 1.23427 4
      vertex -3.19647 -1.5 16.8558
    endloop
  endfacet
  facet normal -2.212e-16 -0.996195 -0.0871557
    outer loop
      vertex -1.22914 4.3212 4
      vertex -1.5 3.19647 16.8558
      vertex -1.5 4.40869 3
    endloop
  endfacet
  facet normal -2.212e-16 -0.996195 -0.0871557
    outer loop
      vertex -1.22914 4.3212 4
      vertex 1.22914 4.3212 4
      vertex 2.5 3.19647 16.8558
    endloop
  endfacet
  facet normal -2.212e-16 -0.996195 -0.0871557
    outer loop
      vertex 2.5 3.19647 16.8558
      vertex -1.5 3.19647 16.8558
      vertex -1.22914 4.3212 4
    endloop
  endfacet
  facet normal -2.212e-16 -0.996195 -0.0871557
    outer loop
      vertex 2.5 4.40869 3
      vertex 2.5 3.19647 16.8558
      vertex 1.22914 4.3212 4
    endloop
  endfacet
  facet normal -2.212e-16 -0.996195 -0.0871557
    outer loop
      vertex 2.5 4.40869 3
      vertex 1.22914 4.3212 4
      vertex 0.888401 4.40869 3
    endloop
  endfacet
  facet normal -2.212e-16 -0.996195 -0.0871557
    outer loop
      vertex -0.888401 4.40869 3
      vertex -1.22914 4.3212 4
      vertex -1.5 4.40869 3
    endloop
  endfacet
  facet normal 0 0 -1
    outer loop
      vertex -0.282557 4.49112 4
      vertex 0.282557 4.49112 4
      vertex -0.843216 4.42029 4
    endloop
  endfacet
  facet normal 0 0 -1
    outer loop
      vertex -0.843216 4.42029 4
      vertex 0.282557 4.49112 4
      vertex 0.843216 4.42029 4
    endloop
  endfacet
  facet normal 0 0 -1
    outer loop
      vertex -0.843216 4.42029 4
      vertex 0.843216 4.42029 4
      vertex 1.22914 4.3212 4
    endloop
  endfacet
  facet normal 0 0 -1
    outer loop
      vertex -0.843216 4.42029 4
      vertex 1.22914 4.3212 4
      vertex -1.22914 4.3212 4
    endloop
  endfacet
  facet normal -0.996195 0 -0.0871557
    outer loop
      vertex 3.19647 -2.5 16.8558
      vertex 3.19647 1.5 16.8558
      vertex 4.40869 -2.5 3
    endloop
  endfacet
  facet normal -0.996195 0 -0.0871557
    outer loop
      vertex 4.3212 1.23427 4
      vertex 3.19647 1.5 16.8558
      vertex 4.40869 1.5 3
    endloop
  endfacet
  facet normal -0.996195 0 -0.0871557
    outer loop
      vertex 4.40869 0.856642 3
      vertex 4.35862 1.1191 3.57227
      vertex 4.40869 1.5 3
    endloop
  endfacet
  facet normal -0.996195 0 -0.0871557
    outer loop
      vertex 4.35862 1.1191 3.57227
      vertex 4.3212 1.23427 4
      vertex 4.40869 1.5 3
    endloop
  endfacet
  facet normal -0.996195 0 -0.0871557
    outer loop
      vertex 4.40869 -2.5 3
      vertex 3.19647 1.5 16.8558
      vertex 4.3212 -1.23427 4
    endloop
  endfacet
  facet normal -0.996195 0 -0.0871557
    outer loop
      vertex 4.40869 -2.5 3
      vertex 4.3212 -1.23427 4
      vertex 4.35862 -1.1191 3.57227
    endloop
  endfacet
  facet normal -0.996195 0 -0.0871557
    outer loop
      vertex 4.40869 -2.5 3
      vertex 4.35862 -1.1191 3.57227
      vertex 4.40869 -0.856642 3
    endloop
  endfacet
  facet normal -0.996195 0 -0.0871557
    outer loop
      vertex 4.3212 -1.23427 4
      vertex 3.19647 1.5 16.8558
      vertex 4.3212 1.23427 4
    endloop
  endfacet
  facet normal -0.951057 -0.309017 0
    outer loop
      vertex 4.35862 1.1191 3.57227
      vertex 4.35862 1.1191 4
      vertex 4.3212 1.23427 4
    endloop
  endfacet
  facet normal 0 0 -1
    outer loop
      vertex 4.35862 1.1191 4
      vertex 4.46452 0.564 4
      vertex 4.3212 1.23427 4
    endloop
  endfacet
  facet normal 0 0 -1
    outer loop
      vertex 4.3212 1.23427 4
      vertex 4.46452 0.564 4
      vertex 4.5 0 4
    endloop
  endfacet
  facet normal 0 0 -1
    outer loop
      vertex 4.3212 1.23427 4
      vertex 4.5 0 4
      vertex 4.46452 -0.564 4
    endloop
  endfacet
  facet normal 0 0 -1
    outer loop
      vertex 4.3212 1.23427 4
      vertex 4.46452 -0.564 4
      vertex 4.35862 -1.1191 4
    endloop
  endfacet
  facet normal 0 0 -1
    outer loop
      vertex 4.3212 1.23427 4
      vertex 4.35862 -1.1191 4
      vertex 4.3212 -1.23427 4
    endloop
  endfacet
  facet normal -0.951057 0.309017 0
    outer loop
      vertex 4.35862 -1.1191 4
      vertex 4.35862 -1.1191 3.57227
      vertex 4.3212 -1.23427 4
    endloop
  endfacet
  facet normal 0 0 -1
    outer loop
      vertex 0.843216 -4.42029 4
      vertex 0.282557 -4.49112 4
      vertex 1.22914 -4.3212 4
    endloop
  endfacet
  facet normal 0 0 -1
    outer loop
      vertex 1.22914 -4.3212 4
      vertex 0.282557 -4.49112 4
      vertex -0.282557 -4.49112 4
    endloop
  endfacet
  facet normal 0 0 -1
    outer loop
      vertex 1.22914 -4.3212 4
      vertex -0.282557 -4.49112 4
      vertex -0.843216 -4.42029 4
    endloop
  endfacet
  facet normal 0 0 -1
    outer loop
      vertex 1.22914 -4.3212 4
      vertex -0.843216 -4.42029 4
      vertex -1.22914 -4.3212 4
    endloop
  endfacet
  facet normal 2.212e-16 0.996195 -0.0871557
    outer loop
      vertex 1.22914 -4.3212 4
      vertex 1.5 -3.19647 16.8558
      vertex 1.5 -4.40869 3
    endloop
  endfacet
  facet normal 2.212e-16 0.996195 -0.0871557
    outer loop
      vertex 0.888401 -4.40869 3
      vertex 1.22914 -4.3212 4
      vertex 1.5 -4.40869 3
    endloop
  endfacet
  facet normal 2.212e-16 0.996195 -0.0871557
    outer loop
      vertex -2.5 -4.40869 3
      vertex -2.5 -3.19647 16.8558
      vertex -1.22914 -4.3212 4
    endloop
  endfacet
  facet normal 2.212e-16 0.996195 -0.0871557
    outer loop
      vertex -2.5 -4.40869 3
      vertex -1.22914 -4.3212 4
      vertex -0.888401 -4.40869 3
    endloop
  endfacet
  facet normal 2.212e-16 0.996195 -0.0871557
    outer loop
      vertex -1.22914 -4.3212 4
      vertex -2.5 -3.19647 16.8558
      vertex 1.5 -3.19647 16.8558
    endloop
  endfacet
  facet normal 2.212e-16 0.996195 -0.0871557
    outer loop
      vertex -1.22914 -4.3212 4
      vertex 1.5 -3.19647 16.8558
      vertex 1.22914 -4.3212 4
    endloop
  endfacet
  facet normal 0.951057 0.309017 0
    outer loop
      vertex -4.35862 -1.1191 4
      vertex -4.3212 -1.23427 4
      vertex -4.35862 -1.1191 3.57227
    endloop
  endfacet
  facet normal -1.22465e-16 -1 0
    outer loop
      vertex -5.18886 -1.5 17.0301
      vertex -6.41633 -1.5 3
      vertex -4.40869 -1.5 3
    endloop
  endfacet
  facet normal -1.22465e-16 -1 0
    outer loop
      vertex -3.19647 -1.5 16.8558
      vertex -5.18886 -1.5 17.0301
      vertex -4.40869 -1.5 3
    endloop
  endfacet
  facet normal -0.996195 1.21999e-16 0.0871557
    outer loop
      vertex -6.41633 -1.5 3
      vertex -5.18886 -1.5 17.0301
      vertex -6.41633 2.5 3
    endloop
  endfacet
  facet normal -0.996195 1.21999e-16 0.0871557
    outer loop
      vertex -6.41633 2.5 3
      vertex -5.18886 -1.5 17.0301
      vertex -5.18886 2.5 17.0301
    endloop
  endfacet
  facet normal -1 2.22045e-16 0
    outer loop
      vertex -2.5 -6.41633 3
      vertex -2.5 -5.18886 17.0301
      vertex -2.5 -4.40869 3
    endloop
  endfacet
  facet normal -1 2.22045e-16 0
    outer loop
      vertex -2.5 -4.40869 3
      vertex -2.5 -5.18886 17.0301
      vertex -2.5 -3.19647 16.8558
    endloop
  endfacet
  facet normal -2.212e-16 -0.996195 0.0871557
    outer loop
      vertex -2.5 -5.18886 17.0301
      vertex -2.5 -6.41633 3
      vertex 1.5 -6.41633 3
    endloop
  endfacet
  facet normal -2.212e-16 -0.996195 0.0871557
    outer loop
      vertex 1.5 -5.18886 17.0301
      vertex -2.5 -5.18886 17.0301
      vertex 1.5 -6.41633 3
    endloop
  endfacet
  facet normal 1 -2.22045e-16 0
    outer loop
      vertex 1.5 -5.18886 17.0301
      vertex 1.5 -6.41633 3
      vertex 1.5 -4.40869 3
    endloop
  endfacet
  facet normal 1 -2.22045e-16 0
    outer loop
      vertex 1.5 -3.19647 16.8558
      vertex 1.5 -5.18886 17.0301
      vertex 1.5 -4.40869 3
    endloop
  endfacet
  facet normal 0 -1 0
    outer loop
      vertex 5.18886 -2.5 17.0301
      vertex 3.19647 -2.5 16.8558
      vertex 4.40869 -2.5 3
    endloop
  endfacet
  facet normal 0 -1 0
    outer loop
      vertex 6.41633 -2.5 3
      vertex 5.18886 -2.5 17.0301
      vertex 4.40869 -2.5 3
    endloop
  endfacet
  facet normal 0.996195 0 0.0871557
    outer loop
      vertex 5.18886 1.5 17.0301
      vertex 5.18886 -2.5 17.0301
      vertex 6.41633 -2.5 3
    endloop
  endfacet
  facet normal 0.996195 0 0.0871557
    outer loop
      vertex 6.41633 1.5 3
      vertex 5.18886 1.5 17.0301
      vertex 6.41633 -2.5 3
    endloop
  endfacet
  facet normal 0 1 0
    outer loop
      vertex 3.19647 1.5 16.8558
      vertex 5.18886 1.5 17.0301
      vertex 4.40869 1.5 3
    endloop
  endfacet
  facet normal 0 1 0
    outer loop
      vertex 4.40869 1.5 3
      vertex 5.18886 1.5 17.0301
      vertex 6.41633 1.5 3
    endloop
  endfacet
  facet normal 1 -2.22045e-16 0
    outer loop
      vertex 2.5 5.18886 17.0301
      vertex 2.5 3.19647 16.8558
      vertex 2.5 4.40869 3
    endloop
  endfacet
  facet normal 1 -2.22045e-16 0
    outer loop
      vertex 2.5 6.41633 3
      vertex 2.5 5.18886 17.0301
      vertex 2.5 4.40869 3
    endloop
  endfacet
  facet normal 2.212e-16 0.996195 0.0871557
    outer loop
      vertex -1.5 5.18886 17.0301
      vertex 2.5 5.18886 17.0301
      vertex -1.5 6.41633 3
    endloop
  endfacet
  facet normal 2.212e-16 0.996195 0.0871557
    outer loop
      vertex -1.5 6.41633 3
      vertex 2.5 5.18886 17.0301
      vertex 2.5 6.41633 3
    endloop
  endfacet
  facet normal -1 2.22045e-16 0
    outer loop
      vertex -1.5 3.19647 16.8558
      vertex -1.5 5.18886 17.0301
      vertex -1.5 4.40869 3
    endloop
  endfacet
  facet normal -1 2.22045e-16 0
    outer loop
      vertex -1.5 4.40869 3
      vertex -1.5 5.18886 17.0301
      vertex -1.5 6.41633 3
    endloop
  endfacet
  facet normal 1.22465e-16 1 0
    outer loop
      vertex -6.41633 2.5 3
      vertex -5.18886 2.5 17.0301
      vertex -4.40869 2.5 3
    endloop
  endfacet
  facet normal 1.22465e-16 1 0
    outer loop
      vertex -4.40869 2.5 3
      vertex -5.18886 2.5 17.0301
      vertex -3.19647 2.5 16.8558
    endloop
  endfacet
  facet normal 0.0871557 -1.06735e-17 0.996195
    outer loop
      vertex -5.18886 2.5 17.0301
      vertex -5.18886 -1.5 17.0301
      vertex -3.19647 -1.5 16.8558
    endloop
  endfacet
  facet normal 0.0871557 -1.06735e-17 0.996195
    outer loop
      vertex -3.19647 2.5 16.8558
      vertex -5.18886 2.5 17.0301
      vertex -3.19647 -1.5 16.8558
    endloop
  endfacet
  facet normal -1.93525e-17 -0.0871557 0.996195
    outer loop
      vertex -1.5 5.18886 17.0301
      vertex -1.5 3.19647 16.8558
      vertex 2.5 3.19647 16.8558
    endloop
  endfacet
  facet normal -1.93525e-17 -0.0871557 0.996195
    outer loop
      vertex 2.5 5.18886 17.0301
      vertex -1.5 5.18886 17.0301
      vertex 2.5 3.19647 16.8558
    endloop
  endfacet
  facet normal -0.0871557 0 0.996195
    outer loop
      vertex 3.19647 1.5 16.8558
      vertex 3.19647 -2.5 16.8558
      vertex 5.18886 -2.5 17.0301
    endloop
  endfacet
  facet normal -0.0871557 0 0.996195
    outer loop
      vertex 5.18886 1.5 17.0301
      vertex 3.19647 1.5 16.8558
      vertex 5.18886 -2.5 17.0301
    endloop
  endfacet
  facet normal 1.93525e-17 0.0871557 0.996195
    outer loop
      vertex -2.5 -3.19647 16.8558
      vertex -2.5 -5.18886 17.0301
      vertex 1.5 -5.18886 17.0301
    endloop
  endfacet
  facet normal 1.93525e-17 0.0871557 0.996195
    outer loop
      vertex 1.5 -3.19647 16.8558
      vertex -2.5 -3.19647 16.8558
      vertex 1.5 -5.18886 17.0301
    endloop
  endfacet
endsolid OpenSCAD_Model
